<svg width="30" height="30" viewBox="0 0 30 30" fill="none" xmlns="http://www.w3.org/2000/svg">
<path d="M2.67962 3.98704L4.95956 1.70711C5.35008 1.31658 5.98325 1.31658 6.37377 1.70711L11.6262 6.95956C12.0168 7.35008 12.0168 7.98325 11.6262 8.37377L9.45291 10.5471C9.18244 10.8176 9.11538 11.2308 9.28644 11.5729C11.2642 15.5284 14.4716 18.7358 18.4271 20.7136C18.7692 20.8846 19.1824 20.8176 19.4529 20.5471L21.6262 18.3738C22.0168 17.9832 22.6499 17.9832 23.0404 18.3738L28.2929 23.6262C28.6834 24.0168 28.6834 24.6499 28.2929 25.0404L26.013 27.3204C23.9016 29.4317 20.559 29.6693 18.1703 27.8777L11.6286 22.9714C9.88504 21.6638 8.33622 20.115 7.02857 18.3714L2.12226 11.8297C0.330722 9.44096 0.568271 6.0984 2.67962 3.98704Z" stroke="white"/>
</svg>
