<svg width="1346" height="699" viewBox="0 0 1346 699" fill="none" xmlns="http://www.w3.org/2000/svg">
<g filter="url(#filter0_d_135_796)">
<path d="M16.9551 365.055C18.8789 366.974 20.8727 369.041 23.2688 371.551C30.597 379.229 39.7265 388.752 50.8324 396.331C66.1708 406.789 82.9783 412.08 100.765 412.08C133.978 412.08 168.205 393.87 199.739 359.395C213.695 344.139 225.763 327.775 237.446 311.928C251.211 293.251 264.223 275.583 277.917 263.377C294.865 248.269 315.765 239.951 336.77 239.951C349.345 239.951 361.465 242.855 372.781 248.539C403.615 264.042 429.167 300.854 439.451 344.606C442.844 359.075 445.065 375.759 447.409 393.452C450.207 414.59 453.11 436.465 458.48 459.276C474.43 527.094 508.605 573.504 549.88 583.42C555.582 584.798 561.406 585.487 567.213 585.487C596.263 585.487 620.556 568.754 641.98 553.99C654.521 545.353 667.498 536.42 674.494 536.42C675.333 536.42 675.788 536.568 675.98 536.666C680.702 538.832 689.272 557.681 695.516 571.437C704.873 592.033 716.504 617.649 734.081 637.704C754.911 661.45 781.023 674 809.601 674L809.566 673.951C841.502 673.951 874.924 658.227 901.229 630.79C940.86 589.449 964.191 530.613 984.777 478.716L985.354 477.24C1003.61 431.175 1020.65 391.237 1044.14 369.041C1056.9 356.984 1073.29 350.34 1090.27 350.34C1111.61 350.34 1132.13 360.65 1146.57 378.614C1158.87 393.895 1169.41 416.041 1180.57 439.492C1183.9 446.481 1187.34 453.691 1190.91 460.925C1208.78 497.098 1234.28 541.44 1273.18 563.316C1287.21 571.215 1301.92 575.226 1316.9 575.226C1323.85 575.226 1330.79 574.34 1337.56 572.593M27.7287 231.954C31.1042 232.741 34.3397 233.824 37.3479 235.153C54.9075 242.904 67.8673 256.463 78.2911 267.364C82.9433 272.236 87.7704 277.281 91.041 279.495C93.6994 281.316 96.9175 282.227 100.573 282.227C114.879 282.227 131.949 269.136 143.16 256.881C153.234 245.882 163.046 232.569 173.434 218.469C189.91 196.126 206.962 172.995 228.544 153.752C260.655 125.134 297.978 110 336.49 110C359.646 110 382.295 115.487 403.825 126.315C461.68 155.401 507.748 221.767 527.039 303.832C532.408 326.643 535.294 348.494 538.092 369.607C540.436 387.3 542.657 403.984 546.05 418.478C551.035 439.664 559.972 454.183 565.411 455.487C565.866 455.585 566.391 455.659 566.968 455.659C574.96 455.659 588.392 446.407 601.387 437.45C621.36 423.694 646.178 406.592 674.616 406.592C684.795 406.592 694.869 408.831 704.523 413.261C740.639 429.797 759.476 471.26 773.222 501.527C779.886 516.193 786.165 530.047 792.146 536.839C797.533 542.991 804.774 544.27 809.881 544.27C821.861 544.27 835.835 537.479 846.329 526.528C870.01 501.847 886.642 459.892 904.237 415.5L904.814 414.048C923.458 367.024 948.975 302.675 992.717 261.335C1020.84 234.759 1054.56 220.708 1090.22 220.708C1134.5 220.708 1176.22 242.264 1207.66 281.39C1228.86 307.769 1243.27 338.012 1257.19 367.27C1260.43 374.061 1263.47 380.484 1266.62 386.857C1277.15 408.142 1291.28 433.759 1307.42 442.839C1310.22 444.414 1313.44 445.25 1316.71 445.25C1321.17 445.25 1324.69 443.651 1326.17 442.076" stroke="white" stroke-dasharray="30 30"/>
</g>
<path d="M1348.48 454.858C1340.83 462.852 1326.63 464.758 1314.99 458.298C1294.92 447.136 1278.7 418.401 1266.82 394.642C1263.58 388.157 1260.41 381.599 1257.08 374.669C1243.44 346.33 1229.32 317.026 1209.18 292.252C1154.92 225.551 1068.67 217.582 1008.56 273.739C966.992 312.571 942.026 374.817 923.804 420.258L923.217 421.718C904.497 468.371 886.826 512.451 860.17 539.923C839.118 561.628 805.931 571.231 786.873 549.749C778.936 540.814 771.907 525.519 764.469 509.307C750.963 479.93 734.164 443.374 702.472 429.019C666.615 412.783 634.478 434.662 608.657 452.259C591.396 464.015 575.114 475.128 563.014 472.232C549.009 468.916 537.211 444.191 531.748 421.173C527.958 405.284 525.627 387.811 523.153 369.323C520.395 348.731 517.53 327.471 512.405 305.839C494.201 229.264 450.728 167.364 396.134 140.214C341.539 113.063 279.702 122.642 230.713 165.83C209.999 184.095 193.219 206.593 176.99 228.373C166.117 242.95 155.868 256.711 144.995 268.443C126.275 288.688 97.0733 307.374 76.4135 293.465C71.8224 290.371 66.5908 284.975 61.0566 279.233C50.8423 268.665 39.2757 256.711 23.7941 249.954C21.2495 248.841 18.6514 248.024 16 247.405V344.078C18.1888 346.206 20.4309 348.533 22.7442 350.909C30.0579 358.482 38.3681 367.07 48.4222 373.827C88.425 400.78 139.247 387.736 184.375 338.955C197.952 324.278 209.946 308.215 221.531 292.648C236.104 273.12 249.86 254.657 265.074 241.243C296.998 213.102 338.923 206.618 374.513 224.314C410.103 242.01 439.571 283.985 451.44 333.881C455.212 349.77 457.561 367.219 460.035 385.682C462.793 406.274 465.658 427.584 470.801 449.215C485.286 510.05 515.715 551.555 552.212 560.242C584.741 567.964 612.466 549.105 636.916 532.448C655.476 519.801 671.509 508.887 682.613 513.911C692.471 518.366 700.764 536.458 710.391 557.371C719.804 577.84 730.463 601.055 746.479 619.097C766.373 641.521 790.129 651 813.992 651C844.546 651 875.313 635.457 898.429 611.623C936.189 572.716 959.109 515.594 979.324 465.179L979.911 463.718C999.45 415.035 1017.78 372.713 1044.4 347.84C1080.45 314.18 1134.16 319.13 1166.7 359.126C1180.64 376.253 1191.88 399.592 1203.77 424.317C1207.12 431.271 1210.59 438.474 1214.14 445.577C1231.16 479.583 1255.27 521.212 1291.2 541.185C1310.13 551.704 1330.11 554.08 1348.53 549.377V454.833L1348.48 454.858Z" fill="url(#paint0_linear_135_796)"/>
<path d="M1302.97 496.686C1276.2 481.917 1256.51 450.012 1240.05 417.343C1223.58 384.699 1208.86 349.614 1187.24 323.281C1143.55 270.025 1073.4 263.614 1024.97 308.439C991.188 339.727 969.8 390.148 949.967 439.139C930.134 488.13 909.747 539.02 877.056 572.428C844.365 605.837 795.49 616.365 763.872 581.033C734.776 548.512 724.994 484.481 689.37 468.504C644.125 448.188 600.651 524.152 553.76 513.106C525.63 506.474 506.101 469.737 497.142 432.359C488.164 395.005 486.644 354.841 477.684 317.463C462.627 254.689 425.751 202.641 380.613 180.401C335.458 158.161 283.006 166.199 242.518 201.58C211.347 228.825 188.045 270.123 158.895 301.338C129.745 332.552 89.3465 353.337 56.1191 331.171" stroke="white" stroke-width="2" stroke-miterlimit="10"/>
<path style="mix-blend-mode:multiply" opacity="0.76" d="M173.947 307.778C173.947 312.135 159.963 315.674 142.704 315.674C125.446 315.674 111.462 312.135 111.462 307.778C111.462 303.422 125.446 299.883 142.704 299.883C159.963 299.883 173.947 303.422 173.947 307.778Z" fill="url(#paint1_radial_135_796)"/>
<g filter="url(#filter1_d_135_796)">
<path d="M175.409 253.476C175.409 271.415 142.704 307.778 142.704 307.778C142.704 307.778 110 271.415 110 253.476C110 235.536 124.639 221 142.704 221C160.77 221 175.409 235.536 175.409 253.476Z" fill="url(#paint2_linear_135_796)"/>
</g>
<path d="M142.704 276.785C155.988 276.785 166.757 266.092 166.757 252.901C166.757 239.71 155.988 229.017 142.704 229.017C129.421 229.017 118.652 239.71 118.652 252.901C118.652 266.092 129.421 276.785 142.704 276.785Z" fill="url(#paint3_linear_135_796)"/>
<path d="M149.478 252.92V245.952C149.478 243.898 149.478 242.871 149.078 242.086C148.727 241.396 148.166 240.835 147.476 240.483C146.691 240.084 145.664 240.084 143.61 240.084H135.786C133.732 240.084 132.705 240.084 131.921 240.483C131.231 240.835 130.67 241.396 130.318 242.086C129.918 242.871 129.918 243.898 129.918 245.952V258.665C129.918 260.719 129.918 261.746 130.318 262.531C130.67 263.221 131.231 263.782 131.921 264.134C132.705 264.533 133.732 264.533 135.786 264.533H139.698M142.143 251.086H134.808M137.253 255.976H134.808M144.588 246.196H134.808M142.755 260.866L145.199 263.311L150.701 257.81" stroke="white" stroke-width="2" stroke-linecap="round" stroke-linejoin="round"/>
<path d="M145.667 193C145.667 191.527 144.473 190.333 143 190.333C141.527 190.333 140.333 191.527 140.333 193C140.333 194.473 141.527 195.667 143 195.667C144.473 195.667 145.667 194.473 145.667 193ZM143.5 120C143.5 119.724 143.276 119.5 143 119.5C142.724 119.5 142.5 119.724 142.5 120L143.5 120ZM143.5 193L143.5 120L142.5 120L142.5 193L143.5 193Z" fill="white"/>
<path d="M18.037 100V85.006H29.293V100H27.424V86.665H19.927V100H18.037ZM36.0434 88.744V100H34.1954V88.744H36.0434ZM35.1404 84.523C35.4204 84.523 35.6654 84.621 35.8754 84.817C36.0994 84.999 36.2114 85.293 36.2114 85.699C36.2114 86.091 36.0994 86.385 35.8754 86.581C35.6654 86.777 35.4204 86.875 35.1404 86.875C34.8324 86.875 34.5734 86.777 34.3634 86.581C34.1534 86.385 34.0484 86.091 34.0484 85.699C34.0484 85.293 34.1534 84.999 34.3634 84.817C34.5734 84.621 34.8324 84.523 35.1404 84.523ZM49.0174 88.744V98.446H50.6554V103.906H48.8704V100H41.0374V103.906H39.2734V98.446H40.1764C40.8204 97.55 41.3524 96.577 41.7724 95.527C42.2064 94.463 42.5284 93.357 42.7384 92.209C42.9624 91.047 43.0814 89.892 43.0954 88.744H49.0174ZM44.7334 90.193C44.6774 91.145 44.5304 92.132 44.2924 93.154C44.0544 94.162 43.7464 95.128 43.3684 96.052C43.0044 96.976 42.5774 97.774 42.0874 98.446H47.2324V90.193H44.7334ZM60.7786 88.744V90.298H55.7596V100H53.9116V88.744H60.7786ZM73.6274 94.351C73.6274 95.289 73.5014 96.122 73.2494 96.85C73.0114 97.564 72.6614 98.173 72.1994 98.677C71.7514 99.181 71.1984 99.566 70.5404 99.832C69.8964 100.084 69.1754 100.21 68.3774 100.21C67.6354 100.21 66.9494 100.084 66.3194 99.832C65.6894 99.566 65.1434 99.181 64.6814 98.677C64.2194 98.173 63.8554 97.564 63.5894 96.85C63.3374 96.122 63.2114 95.289 63.2114 94.351C63.2114 93.105 63.4214 92.055 63.8414 91.201C64.2614 90.333 64.8634 89.675 65.6474 89.227C66.4314 88.765 67.3624 88.534 68.4404 88.534C69.4624 88.534 70.3584 88.765 71.1284 89.227C71.9124 89.675 72.5214 90.333 72.9554 91.201C73.4034 92.055 73.6274 93.105 73.6274 94.351ZM65.1224 94.351C65.1224 95.233 65.2344 96.003 65.4584 96.661C65.6964 97.305 66.0604 97.802 66.5504 98.152C67.0404 98.502 67.6634 98.677 68.4194 98.677C69.1754 98.677 69.7984 98.502 70.2884 98.152C70.7784 97.802 71.1354 97.305 71.3594 96.661C71.5974 96.003 71.7164 95.233 71.7164 94.351C71.7164 93.455 71.5974 92.692 71.3594 92.062C71.1214 91.432 70.7574 90.949 70.2674 90.613C69.7914 90.263 69.1684 90.088 68.3984 90.088C67.2504 90.088 66.4174 90.466 65.8994 91.222C65.3814 91.978 65.1224 93.021 65.1224 94.351ZM85.1712 90.298H81.4962V100H79.6692V90.298H76.0362V88.744H85.1712V90.298ZM98.0194 94.351C98.0194 95.289 97.8934 96.122 97.6414 96.85C97.4034 97.564 97.0534 98.173 96.5914 98.677C96.1434 99.181 95.5904 99.566 94.9324 99.832C94.2884 100.084 93.5674 100.21 92.7694 100.21C92.0274 100.21 91.3414 100.084 90.7114 99.832C90.0814 99.566 89.5354 99.181 89.0734 98.677C88.6114 98.173 88.2474 97.564 87.9814 96.85C87.7294 96.122 87.6034 95.289 87.6034 94.351C87.6034 93.105 87.8134 92.055 88.2334 91.201C88.6534 90.333 89.2554 89.675 90.0394 89.227C90.8234 88.765 91.7544 88.534 92.8324 88.534C93.8544 88.534 94.7504 88.765 95.5204 89.227C96.3044 89.675 96.9134 90.333 97.3474 91.201C97.7954 92.055 98.0194 93.105 98.0194 94.351ZM89.5144 94.351C89.5144 95.233 89.6264 96.003 89.8504 96.661C90.0884 97.305 90.4524 97.802 90.9424 98.152C91.4324 98.502 92.0554 98.677 92.8114 98.677C93.5674 98.677 94.1904 98.502 94.6804 98.152C95.1704 97.802 95.5274 97.305 95.7514 96.661C95.9894 96.003 96.1084 95.233 96.1084 94.351C96.1084 93.455 95.9894 92.692 95.7514 92.062C95.5134 91.432 95.1494 90.949 94.6594 90.613C94.1834 90.263 93.5604 90.088 92.7904 90.088C91.6424 90.088 90.8094 90.466 90.2914 91.222C89.7734 91.978 89.5144 93.021 89.5144 94.351ZM111.049 91.579C111.049 92.279 110.839 92.825 110.419 93.217C109.999 93.609 109.46 93.875 108.802 94.015V94.099C109.502 94.197 110.111 94.449 110.629 94.855C111.147 95.247 111.406 95.863 111.406 96.703C111.406 97.179 111.315 97.62 111.133 98.026C110.965 98.432 110.699 98.782 110.335 99.076C109.971 99.37 109.502 99.601 108.928 99.769C108.354 99.923 107.661 100 106.849 100H101.998V88.744H106.828C107.626 88.744 108.34 88.835 108.97 89.017C109.614 89.185 110.118 89.479 110.482 89.899C110.86 90.305 111.049 90.865 111.049 91.579ZM109.495 96.703C109.495 96.059 109.25 95.597 108.76 95.317C108.27 95.037 107.549 94.897 106.597 94.897H103.846V98.509H106.639C107.563 98.509 108.27 98.376 108.76 98.11C109.25 97.83 109.495 97.361 109.495 96.703ZM109.18 91.81C109.18 91.278 108.984 90.893 108.592 90.655C108.214 90.403 107.591 90.277 106.723 90.277H103.846V93.364H106.387C107.297 93.364 107.99 93.238 108.466 92.986C108.942 92.734 109.18 92.342 109.18 91.81ZM121.805 88.744H123.821L119.012 94.162L124.22 100H122.078L116.996 94.288V100H115.148V88.744H116.996V94.204L121.805 88.744ZM131.576 88.555C132.948 88.555 133.963 88.856 134.621 89.458C135.279 90.06 135.608 91.019 135.608 92.335V100H134.264L133.907 98.404H133.823C133.501 98.81 133.165 99.153 132.815 99.433C132.479 99.699 132.087 99.895 131.639 100.021C131.205 100.147 130.673 100.21 130.043 100.21C129.371 100.21 128.762 100.091 128.216 99.853C127.684 99.615 127.264 99.251 126.956 98.761C126.648 98.257 126.494 97.627 126.494 96.871C126.494 95.751 126.935 94.89 127.817 94.288C128.699 93.672 130.057 93.336 131.891 93.28L133.802 93.217V92.545C133.802 91.607 133.599 90.956 133.193 90.592C132.787 90.228 132.213 90.046 131.471 90.046C130.883 90.046 130.323 90.137 129.791 90.319C129.259 90.487 128.762 90.683 128.3 90.907L127.733 89.521C128.223 89.255 128.804 89.031 129.476 88.849C130.148 88.653 130.848 88.555 131.576 88.555ZM132.122 94.561C130.722 94.617 129.749 94.841 129.203 95.233C128.671 95.625 128.405 96.178 128.405 96.892C128.405 97.522 128.594 97.984 128.972 98.278C129.364 98.572 129.861 98.719 130.463 98.719C131.415 98.719 132.206 98.46 132.836 97.942C133.466 97.41 133.781 96.598 133.781 95.506V94.498L132.122 94.561ZM154.629 88.744V98.446H156.267V103.906H154.482V100H146.649V103.906H144.885V98.446H145.788C146.432 97.55 146.964 96.577 147.384 95.527C147.818 94.463 148.14 93.357 148.35 92.209C148.574 91.047 148.693 89.892 148.707 88.744H154.629ZM150.345 90.193C150.289 91.145 150.142 92.132 149.904 93.154C149.666 94.162 149.358 95.128 148.98 96.052C148.616 96.976 148.189 97.774 147.699 98.446H152.844V90.193H150.345ZM169.309 94.351C169.309 95.289 169.183 96.122 168.931 96.85C168.693 97.564 168.343 98.173 167.881 98.677C167.433 99.181 166.88 99.566 166.222 99.832C165.578 100.084 164.857 100.21 164.059 100.21C163.317 100.21 162.631 100.084 162.001 99.832C161.371 99.566 160.825 99.181 160.363 98.677C159.901 98.173 159.537 97.564 159.271 96.85C159.019 96.122 158.893 95.289 158.893 94.351C158.893 93.105 159.103 92.055 159.523 91.201C159.943 90.333 160.545 89.675 161.329 89.227C162.113 88.765 163.044 88.534 164.122 88.534C165.144 88.534 166.04 88.765 166.81 89.227C167.594 89.675 168.203 90.333 168.637 91.201C169.085 92.055 169.309 93.105 169.309 94.351ZM160.804 94.351C160.804 95.233 160.916 96.003 161.14 96.661C161.378 97.305 161.742 97.802 162.232 98.152C162.722 98.502 163.345 98.677 164.101 98.677C164.857 98.677 165.48 98.502 165.97 98.152C166.46 97.802 166.817 97.305 167.041 96.661C167.279 96.003 167.398 95.233 167.398 94.351C167.398 93.455 167.279 92.692 167.041 92.062C166.803 91.432 166.439 90.949 165.949 90.613C165.473 90.263 164.85 90.088 164.08 90.088C162.932 90.088 162.099 90.466 161.581 91.222C161.063 91.978 160.804 93.021 160.804 94.351ZM179.945 88.744H181.961L177.152 94.162L182.36 100H180.218L175.136 94.288V100H173.288V88.744H175.136V94.204L179.945 88.744ZM183.689 88.744H185.663L188.099 95.149C188.239 95.527 188.365 95.891 188.477 96.241C188.603 96.591 188.715 96.934 188.813 97.27C188.911 97.592 188.988 97.907 189.044 98.215H189.128C189.212 97.865 189.345 97.41 189.527 96.85C189.709 96.276 189.898 95.702 190.094 95.128L192.383 88.744H194.378L189.527 101.554C189.261 102.254 188.946 102.863 188.582 103.381C188.232 103.913 187.798 104.319 187.28 104.599C186.776 104.893 186.16 105.04 185.432 105.04C185.096 105.04 184.802 105.019 184.55 104.977C184.298 104.949 184.081 104.914 183.899 104.872V103.402C184.053 103.43 184.235 103.458 184.445 103.486C184.669 103.514 184.9 103.528 185.138 103.528C185.572 103.528 185.943 103.444 186.251 103.276C186.573 103.122 186.846 102.891 187.07 102.583C187.294 102.289 187.483 101.939 187.637 101.533L188.225 100.042L183.689 88.744ZM209.283 88.744V100H207.624V92.818C207.624 92.524 207.631 92.216 207.645 91.894C207.673 91.572 207.701 91.257 207.729 90.949H207.666L203.991 100H202.437L198.867 90.949H198.804C198.832 91.257 198.846 91.572 198.846 91.894C198.86 92.216 198.867 92.545 198.867 92.881V100H197.208V88.744H199.665L203.214 97.795L206.826 88.744H209.283ZM218.273 88.534C219.239 88.534 220.065 88.744 220.751 89.164C221.451 89.584 221.983 90.179 222.347 90.949C222.725 91.705 222.914 92.594 222.914 93.616V94.729H215.207C215.235 96.003 215.557 96.976 216.173 97.648C216.803 98.306 217.678 98.635 218.798 98.635C219.512 98.635 220.142 98.572 220.688 98.446C221.248 98.306 221.822 98.11 222.41 97.858V99.475C221.836 99.727 221.269 99.909 220.709 100.021C220.149 100.147 219.484 100.21 218.714 100.21C217.65 100.21 216.705 99.993 215.879 99.559C215.067 99.125 214.43 98.481 213.968 97.627C213.52 96.759 213.296 95.702 213.296 94.456C213.296 93.224 213.499 92.167 213.905 91.285C214.325 90.403 214.906 89.724 215.648 89.248C216.404 88.772 217.279 88.534 218.273 88.534ZM218.252 90.046C217.37 90.046 216.67 90.333 216.152 90.907C215.648 91.467 215.347 92.251 215.249 93.259H220.982C220.982 92.615 220.884 92.055 220.688 91.579C220.492 91.103 220.191 90.732 219.785 90.466C219.393 90.186 218.882 90.046 218.252 90.046ZM228.677 88.744V93.427H234.788V88.744H236.636V100H234.788V94.981H228.677V100H226.829V88.744H228.677ZM249.02 90.298H245.345V100H243.518V90.298H239.885V88.744H249.02V90.298ZM254.136 88.744V100H252.288V88.744H254.136ZM253.233 84.523C253.513 84.523 253.758 84.621 253.968 84.817C254.192 84.999 254.304 85.293 254.304 85.699C254.304 86.091 254.192 86.385 253.968 86.581C253.758 86.777 253.513 86.875 253.233 86.875C252.925 86.875 252.666 86.777 252.456 86.581C252.246 86.385 252.141 86.091 252.141 85.699C252.141 85.293 252.246 84.999 252.456 84.817C252.666 84.621 252.925 84.523 253.233 84.523ZM267.803 91.579C267.803 92.279 267.593 92.825 267.173 93.217C266.753 93.609 266.214 93.875 265.556 94.015V94.099C266.256 94.197 266.865 94.449 267.383 94.855C267.901 95.247 268.16 95.863 268.16 96.703C268.16 97.179 268.069 97.62 267.887 98.026C267.719 98.432 267.453 98.782 267.089 99.076C266.725 99.37 266.256 99.601 265.682 99.769C265.108 99.923 264.415 100 263.603 100H258.752V88.744H263.582C264.38 88.744 265.094 88.835 265.724 89.017C266.368 89.185 266.872 89.479 267.236 89.899C267.614 90.305 267.803 90.865 267.803 91.579ZM266.249 96.703C266.249 96.059 266.004 95.597 265.514 95.317C265.024 95.037 264.303 94.897 263.351 94.897H260.6V98.509H263.393C264.317 98.509 265.024 98.376 265.514 98.11C266.004 97.83 266.249 97.361 266.249 96.703ZM265.934 91.81C265.934 91.278 265.738 90.893 265.346 90.655C264.968 90.403 264.345 90.277 263.477 90.277H260.6V93.364H263.141C264.051 93.364 264.744 93.238 265.22 92.986C265.696 92.734 265.934 92.342 265.934 91.81Z" fill="white"/>
<path style="mix-blend-mode:multiply" opacity="0.76" d="M443.695 270.817C460.285 270.817 473.733 267.418 473.733 263.225C473.733 259.032 460.285 255.634 443.695 255.634C427.105 255.634 413.657 259.032 413.657 263.225C413.657 267.418 427.105 270.817 443.695 270.817Z" fill="url(#paint4_radial_135_796)"/>
<g filter="url(#filter2_d_135_796)">
<path d="M475.139 211.015C475.139 228.263 443.695 263.225 443.695 263.225C443.695 263.225 412.251 228.263 412.251 211.015C412.251 193.766 426.325 179.79 443.695 179.79C461.065 179.79 475.139 193.766 475.139 211.015Z" fill="url(#paint5_linear_135_796)"/>
</g>
<path d="M460.057 226.714C469.088 217.746 469.088 203.206 460.057 194.238C451.026 185.27 436.383 185.27 427.352 194.238C418.321 203.206 418.321 217.746 427.352 226.714C436.383 235.682 451.026 235.682 460.057 226.714Z" fill="url(#paint6_linear_135_796)"/>
<path d="M456.274 206.935C456.619 206.935 456.91 206.646 456.91 206.303C456.91 205.961 456.619 205.672 456.274 205.672C455.929 205.672 455.638 205.961 455.638 206.303C455.638 206.646 455.929 206.935 456.274 206.935Z" fill="white"/>
<path d="M439.338 210.616C439.69 210.616 439.974 210.333 439.974 209.984C439.974 209.636 439.69 209.353 439.338 209.353C438.987 209.353 438.702 209.636 438.702 209.984C438.702 210.333 438.987 210.616 439.338 210.616Z" fill="white"/>
<path d="M429.598 217.274V223.445H427.999C427.654 223.445 427.363 223.734 427.363 224.077C427.363 224.42 427.654 224.709 427.999 224.709H445.626H453.276H458.546C458.891 224.709 459.182 224.42 459.182 224.077C459.182 223.734 458.891 223.445 458.546 223.445H453.73L451.895 218.014H457.873C458.927 218.014 459.781 217.166 459.781 216.119V200.962C459.781 199.916 458.927 199.068 457.873 199.068H452.894C452.585 197.335 451.059 196 449.224 196C447.388 196 445.862 197.335 445.553 199.068H440.574C439.52 199.068 438.666 199.916 438.666 200.962V204.156H435.104C435.45 203.669 435.668 203.055 435.668 202.406C435.668 200.746 434.305 199.392 432.633 199.392C430.961 199.392 429.598 200.746 429.598 202.406C429.598 203.272 429.962 204.03 430.543 204.589C428.472 205.437 427 207.422 427 209.732V214.459C427 215.903 428.127 217.094 429.562 217.238L429.598 217.274ZM452.404 223.445H446.534L448.37 218.014H450.586L452.422 223.445H452.404ZM449.26 197.281C450.387 197.281 451.331 198.039 451.622 199.068H446.898C447.188 198.039 448.133 197.281 449.26 197.281ZM439.993 200.962C439.993 200.619 440.265 200.331 440.61 200.331H457.91C458.255 200.331 458.546 200.601 458.546 200.962V216.119C458.546 216.462 458.273 216.733 457.91 216.733H440.61C440.265 216.733 439.993 216.462 439.993 216.119V212.402C439.993 212.059 439.702 211.771 439.357 211.771C439.011 211.771 438.721 212.059 438.721 212.402V216.119C438.721 217.166 439.575 218.014 440.629 218.014H447.043L445.208 223.445H436.14V208.108H442.664C444.499 208.108 445.989 206.628 445.989 204.806C445.989 204.463 445.698 204.174 445.353 204.174H440.011V200.98L439.993 200.962ZM432.669 200.673C433.633 200.673 434.432 201.449 434.432 202.424C434.432 203.398 433.651 204.174 432.669 204.174C431.688 204.174 430.907 203.398 430.907 202.424C430.907 201.449 431.688 200.673 432.669 200.673ZM428.327 209.75C428.327 207.368 430.344 205.437 432.833 205.437H444.59C444.317 206.249 443.554 206.827 442.646 206.827H435.486C435.141 206.827 434.85 207.115 434.85 207.458V223.427H433.524V216.282C433.524 215.939 433.233 215.65 432.888 215.65C432.542 215.65 432.252 215.939 432.252 216.282V223.427H430.925V209.894C430.925 209.551 430.634 209.263 430.289 209.263C429.944 209.263 429.653 209.551 429.653 209.894V215.957C428.926 215.813 428.363 215.199 428.363 214.459V209.732L428.327 209.75Z" fill="white"/>
<path d="M444.681 212.041C444.554 211.915 444.39 211.861 444.227 211.861C444.063 211.861 443.899 211.933 443.772 212.041L441.937 213.864C441.682 214.116 441.682 214.513 441.937 214.766C442.064 214.892 442.228 214.947 442.391 214.947C442.555 214.947 442.718 214.892 442.845 214.766L444.227 213.395L445.208 214.369C445.462 214.622 445.862 214.622 446.116 214.369L449.642 210.85L450.641 211.843C450.895 212.096 451.295 212.096 451.55 211.843L454.748 208.667C455.002 208.415 455.002 208.018 454.748 207.765C454.493 207.512 454.094 207.512 453.839 207.765L451.095 210.49L450.096 209.497C449.841 209.245 449.442 209.245 449.187 209.497L445.644 213.016L444.663 212.041H444.681Z" fill="white"/>
<path d="M446.667 160C446.667 158.527 445.473 157.333 444 157.333C442.527 157.333 441.333 158.527 441.333 160C441.333 161.473 442.527 162.667 444 162.667C445.473 162.667 446.667 161.473 446.667 160ZM444.5 83C444.5 82.7239 444.276 82.5 444 82.5C443.724 82.5 443.5 82.7239 443.5 83L444.5 83ZM444.5 160L444.5 83L443.5 83L443.5 160L444.5 160Z" fill="white"/>
<path d="M331.503 56H329.613V49.007H321.927V56H320.037V41.006H321.927V47.348H329.613V41.006H331.503V56ZM340.663 44.555C342.035 44.555 343.05 44.856 343.708 45.458C344.366 46.06 344.695 47.019 344.695 48.335V56H343.351L342.994 54.404H342.91C342.588 54.81 342.252 55.153 341.902 55.433C341.566 55.699 341.174 55.895 340.726 56.021C340.292 56.147 339.76 56.21 339.13 56.21C338.458 56.21 337.849 56.091 337.303 55.853C336.771 55.615 336.351 55.251 336.043 54.761C335.735 54.257 335.581 53.627 335.581 52.871C335.581 51.751 336.022 50.89 336.904 50.288C337.786 49.672 339.144 49.336 340.978 49.28L342.889 49.217V48.545C342.889 47.607 342.686 46.956 342.28 46.592C341.874 46.228 341.3 46.046 340.558 46.046C339.97 46.046 339.41 46.137 338.878 46.319C338.346 46.487 337.849 46.683 337.387 46.907L336.82 45.521C337.31 45.255 337.891 45.031 338.563 44.849C339.235 44.653 339.935 44.555 340.663 44.555ZM341.209 50.561C339.809 50.617 338.836 50.841 338.29 51.233C337.758 51.625 337.492 52.178 337.492 52.892C337.492 53.522 337.681 53.984 338.059 54.278C338.451 54.572 338.948 54.719 339.55 54.719C340.502 54.719 341.293 54.46 341.923 53.942C342.553 53.41 342.868 52.598 342.868 51.506V50.498L341.209 50.561ZM358.273 47.579C358.273 48.279 358.063 48.825 357.643 49.217C357.223 49.609 356.684 49.875 356.026 50.015V50.099C356.726 50.197 357.335 50.449 357.853 50.855C358.371 51.247 358.63 51.863 358.63 52.703C358.63 53.179 358.539 53.62 358.357 54.026C358.189 54.432 357.923 54.782 357.559 55.076C357.195 55.37 356.726 55.601 356.152 55.769C355.578 55.923 354.885 56 354.073 56H349.222V44.744H354.052C354.85 44.744 355.564 44.835 356.194 45.017C356.838 45.185 357.342 45.479 357.706 45.899C358.084 46.305 358.273 46.865 358.273 47.579ZM356.719 52.703C356.719 52.059 356.474 51.597 355.984 51.317C355.494 51.037 354.773 50.897 353.821 50.897H351.07V54.509H353.863C354.787 54.509 355.494 54.376 355.984 54.11C356.474 53.83 356.719 53.361 356.719 52.703ZM356.404 47.81C356.404 47.278 356.208 46.893 355.816 46.655C355.438 46.403 354.815 46.277 353.947 46.277H351.07V49.364H353.611C354.521 49.364 355.214 49.238 355.69 48.986C356.166 48.734 356.404 48.342 356.404 47.81ZM363.989 48.839C363.989 49.497 364.171 49.987 364.535 50.309C364.913 50.617 365.452 50.771 366.152 50.771C366.852 50.771 367.489 50.666 368.063 50.456C368.637 50.232 369.225 49.938 369.827 49.574V44.744H371.675V56H369.827V50.981C369.197 51.387 368.574 51.709 367.958 51.947C367.356 52.171 366.628 52.283 365.774 52.283C364.626 52.283 363.73 51.982 363.086 51.38C362.456 50.778 362.141 49.973 362.141 48.965V44.744H363.989V48.839ZM380.563 44.555C381.935 44.555 382.95 44.856 383.608 45.458C384.266 46.06 384.595 47.019 384.595 48.335V56H383.251L382.894 54.404H382.81C382.488 54.81 382.152 55.153 381.802 55.433C381.466 55.699 381.074 55.895 380.626 56.021C380.192 56.147 379.66 56.21 379.03 56.21C378.358 56.21 377.749 56.091 377.203 55.853C376.671 55.615 376.251 55.251 375.943 54.761C375.635 54.257 375.481 53.627 375.481 52.871C375.481 51.751 375.922 50.89 376.804 50.288C377.686 49.672 379.044 49.336 380.878 49.28L382.789 49.217V48.545C382.789 47.607 382.586 46.956 382.18 46.592C381.774 46.228 381.2 46.046 380.458 46.046C379.87 46.046 379.31 46.137 378.778 46.319C378.246 46.487 377.749 46.683 377.287 46.907L376.72 45.521C377.21 45.255 377.791 45.031 378.463 44.849C379.135 44.653 379.835 44.555 380.563 44.555ZM381.109 50.561C379.709 50.617 378.736 50.841 378.19 51.233C377.658 51.625 377.392 52.178 377.392 52.892C377.392 53.522 377.581 53.984 377.959 54.278C378.351 54.572 378.848 54.719 379.45 54.719C380.402 54.719 381.193 54.46 381.823 53.942C382.453 53.41 382.768 52.598 382.768 51.506V50.498L381.109 50.561ZM390.97 44.744V49.427H397.081V44.744H398.929V56H397.081V50.981H390.97V56H389.122V44.744H390.97ZM405.391 44.744V49.427H411.502V44.744H413.35V56H411.502V50.981H405.391V56H403.543V44.744H405.391ZM418.657 56H416.515L419.728 51.275C419.294 51.163 418.874 50.988 418.468 50.75C418.062 50.498 417.733 50.155 417.481 49.721C417.229 49.273 417.103 48.72 417.103 48.062C417.103 46.984 417.467 46.165 418.195 45.605C418.923 45.031 419.889 44.744 421.093 44.744H426.133V56H424.285V51.527H421.555L418.657 56ZM418.888 48.083C418.888 48.727 419.126 49.21 419.602 49.532C420.092 49.84 420.771 49.994 421.639 49.994H424.285V46.277H421.282C420.428 46.277 419.812 46.445 419.434 46.781C419.07 47.117 418.888 47.551 418.888 48.083ZM445.932 47.579C445.932 48.279 445.722 48.825 445.302 49.217C444.882 49.609 444.343 49.875 443.685 50.015V50.099C444.385 50.197 444.994 50.449 445.512 50.855C446.03 51.247 446.289 51.863 446.289 52.703C446.289 53.179 446.198 53.62 446.016 54.026C445.848 54.432 445.582 54.782 445.218 55.076C444.854 55.37 444.385 55.601 443.811 55.769C443.237 55.923 442.544 56 441.732 56H436.881V44.744H441.711C442.509 44.744 443.223 44.835 443.853 45.017C444.497 45.185 445.001 45.479 445.365 45.899C445.743 46.305 445.932 46.865 445.932 47.579ZM444.378 52.703C444.378 52.059 444.133 51.597 443.643 51.317C443.153 51.037 442.432 50.897 441.48 50.897H438.729V54.509H441.522C442.446 54.509 443.153 54.376 443.643 54.11C444.133 53.83 444.378 53.361 444.378 52.703ZM444.063 47.81C444.063 47.278 443.867 46.893 443.475 46.655C443.097 46.403 442.474 46.277 441.606 46.277H438.729V49.364H441.27C442.18 49.364 442.873 49.238 443.349 48.986C443.825 48.734 444.063 48.342 444.063 47.81ZM460.429 44.555C461.801 44.555 462.816 44.856 463.474 45.458C464.132 46.06 464.461 47.019 464.461 48.335V56H463.117L462.76 54.404H462.676C462.354 54.81 462.018 55.153 461.668 55.433C461.332 55.699 460.94 55.895 460.492 56.021C460.058 56.147 459.526 56.21 458.896 56.21C458.224 56.21 457.615 56.091 457.069 55.853C456.537 55.615 456.117 55.251 455.809 54.761C455.501 54.257 455.347 53.627 455.347 52.871C455.347 51.751 455.788 50.89 456.67 50.288C457.552 49.672 458.91 49.336 460.744 49.28L462.655 49.217V48.545C462.655 47.607 462.452 46.956 462.046 46.592C461.64 46.228 461.066 46.046 460.324 46.046C459.736 46.046 459.176 46.137 458.644 46.319C458.112 46.487 457.615 46.683 457.153 46.907L456.586 45.521C457.076 45.255 457.657 45.031 458.329 44.849C459.001 44.653 459.701 44.555 460.429 44.555ZM460.975 50.561C459.575 50.617 458.602 50.841 458.056 51.233C457.524 51.625 457.258 52.178 457.258 52.892C457.258 53.522 457.447 53.984 457.825 54.278C458.217 54.572 458.714 54.719 459.316 54.719C460.268 54.719 461.059 54.46 461.689 53.942C462.319 53.41 462.634 52.598 462.634 51.506V50.498L460.975 50.561ZM478.039 47.579C478.039 48.279 477.829 48.825 477.409 49.217C476.989 49.609 476.45 49.875 475.792 50.015V50.099C476.492 50.197 477.101 50.449 477.619 50.855C478.137 51.247 478.396 51.863 478.396 52.703C478.396 53.179 478.305 53.62 478.123 54.026C477.955 54.432 477.689 54.782 477.325 55.076C476.961 55.37 476.492 55.601 475.918 55.769C475.344 55.923 474.651 56 473.839 56H468.988V44.744H473.818C474.616 44.744 475.33 44.835 475.96 45.017C476.604 45.185 477.108 45.479 477.472 45.899C477.85 46.305 478.039 46.865 478.039 47.579ZM476.485 52.703C476.485 52.059 476.24 51.597 475.75 51.317C475.26 51.037 474.539 50.897 473.587 50.897H470.836V54.509H473.629C474.553 54.509 475.26 54.376 475.75 54.11C476.24 53.83 476.485 53.361 476.485 52.703ZM476.17 47.81C476.17 47.278 475.974 46.893 475.582 46.655C475.204 46.403 474.581 46.277 473.713 46.277H470.836V49.364H473.377C474.287 49.364 474.98 49.238 475.456 48.986C475.932 48.734 476.17 48.342 476.17 47.81ZM489.907 46.298H486.232V56H484.405V46.298H480.772V44.744H489.907V46.298ZM502.755 50.351C502.755 51.289 502.629 52.122 502.377 52.85C502.139 53.564 501.789 54.173 501.327 54.677C500.879 55.181 500.326 55.566 499.668 55.832C499.024 56.084 498.303 56.21 497.505 56.21C496.763 56.21 496.077 56.084 495.447 55.832C494.817 55.566 494.271 55.181 493.809 54.677C493.347 54.173 492.983 53.564 492.717 52.85C492.465 52.122 492.339 51.289 492.339 50.351C492.339 49.105 492.549 48.055 492.969 47.201C493.389 46.333 493.991 45.675 494.775 45.227C495.559 44.765 496.49 44.534 497.568 44.534C498.59 44.534 499.486 44.765 500.256 45.227C501.04 45.675 501.649 46.333 502.083 47.201C502.531 48.055 502.755 49.105 502.755 50.351ZM494.25 50.351C494.25 51.233 494.362 52.003 494.586 52.661C494.824 53.305 495.188 53.802 495.678 54.152C496.168 54.502 496.791 54.677 497.547 54.677C498.303 54.677 498.926 54.502 499.416 54.152C499.906 53.802 500.263 53.305 500.487 52.661C500.725 52.003 500.844 51.233 500.844 50.351C500.844 49.455 500.725 48.692 500.487 48.062C500.249 47.432 499.885 46.949 499.395 46.613C498.919 46.263 498.296 46.088 497.526 46.088C496.378 46.088 495.545 46.466 495.027 47.222C494.509 47.978 494.25 49.021 494.25 50.351ZM522.001 44.744V56H506.734V44.744H508.582V54.446H513.433V44.744H515.281V54.446H520.153V44.744H522.001ZM533.308 44.744H535.324L530.515 50.162L535.723 56H533.581L528.499 50.288V56H526.651V44.744H528.499V50.204L533.308 44.744ZM548.192 50.351C548.192 51.289 548.066 52.122 547.814 52.85C547.576 53.564 547.226 54.173 546.764 54.677C546.316 55.181 545.763 55.566 545.105 55.832C544.461 56.084 543.74 56.21 542.942 56.21C542.2 56.21 541.514 56.084 540.884 55.832C540.254 55.566 539.708 55.181 539.246 54.677C538.784 54.173 538.42 53.564 538.154 52.85C537.902 52.122 537.776 51.289 537.776 50.351C537.776 49.105 537.986 48.055 538.406 47.201C538.826 46.333 539.428 45.675 540.212 45.227C540.996 44.765 541.927 44.534 543.005 44.534C544.027 44.534 544.923 44.765 545.693 45.227C546.477 45.675 547.086 46.333 547.52 47.201C547.968 48.055 548.192 49.105 548.192 50.351ZM539.687 50.351C539.687 51.233 539.799 52.003 540.023 52.661C540.261 53.305 540.625 53.802 541.115 54.152C541.605 54.502 542.228 54.677 542.984 54.677C543.74 54.677 544.363 54.502 544.853 54.152C545.343 53.802 545.7 53.305 545.924 52.661C546.162 52.003 546.281 51.233 546.281 50.351C546.281 49.455 546.162 48.692 545.924 48.062C545.686 47.432 545.322 46.949 544.832 46.613C544.356 46.263 543.733 46.088 542.963 46.088C541.815 46.088 540.982 46.466 540.464 47.222C539.946 47.978 539.687 49.021 539.687 50.351ZM560.739 56H558.87V46.277H555.552C555.412 48.055 555.237 49.574 555.027 50.834C554.817 52.08 554.551 53.095 554.229 53.879C553.907 54.663 553.522 55.237 553.074 55.601C552.626 55.965 552.101 56.147 551.499 56.147C551.317 56.147 551.135 56.133 550.953 56.105C550.785 56.091 550.645 56.056 550.533 56V54.614C550.617 54.642 550.708 54.663 550.806 54.677C550.904 54.691 551.002 54.698 551.1 54.698C551.408 54.698 551.688 54.572 551.94 54.32C552.192 54.068 552.416 53.683 552.612 53.165C552.822 52.647 553.011 51.996 553.179 51.212C553.347 50.414 553.494 49.476 553.62 48.398C553.746 47.32 553.858 46.102 553.956 44.744H560.739V56ZM567.21 44.744V56H565.362V44.744H567.21ZM566.307 40.523C566.587 40.523 566.832 40.621 567.042 40.817C567.266 40.999 567.378 41.293 567.378 41.699C567.378 42.091 567.266 42.385 567.042 42.581C566.832 42.777 566.587 42.875 566.307 42.875C565.999 42.875 565.74 42.777 565.53 42.581C565.32 42.385 565.215 42.091 565.215 41.699C565.215 41.293 565.32 40.999 565.53 40.817C565.74 40.621 565.999 40.523 566.307 40.523Z" fill="white"/>
<path style="mix-blend-mode:multiply" opacity="0.76" d="M690.189 469.674C707.443 469.674 721.431 466.139 721.431 461.779C721.431 457.418 707.443 453.883 690.189 453.883C672.934 453.883 658.947 457.418 658.947 461.779C658.947 466.139 672.934 469.674 690.189 469.674Z" fill="url(#paint7_radial_135_796)"/>
<g filter="url(#filter3_d_135_796)">
<path d="M722.893 407.476C722.893 425.416 690.189 461.779 690.189 461.779C690.189 461.779 657.484 425.416 657.484 407.476C657.484 389.536 672.123 375 690.189 375C708.255 375 722.893 389.536 722.893 407.476Z" fill="url(#paint8_linear_135_796)"/>
</g>
<path d="M713.593 412.346C716.624 399.503 708.597 386.652 695.664 383.642C682.73 380.632 669.789 388.603 666.758 401.446C663.726 414.289 671.754 427.14 684.687 430.15C697.62 433.16 710.562 425.189 713.593 412.346Z" fill="url(#paint9_linear_135_796)"/>
<path d="M695.94 409.726V406.052C695.94 405.832 695.94 405.723 695.906 405.626C695.877 405.54 695.829 405.462 695.765 405.397C695.694 405.324 695.595 405.275 695.399 405.177L689.827 402.391M680.048 403.614V411.935C680.048 412.389 680.048 412.617 680.118 412.816C680.181 412.992 680.283 413.151 680.417 413.281C680.569 413.429 680.775 413.523 681.189 413.713L689.012 417.299C689.312 417.436 689.462 417.505 689.618 417.532C689.757 417.556 689.898 417.556 690.036 417.532C690.193 417.505 690.343 417.436 690.642 417.299L698.466 413.713C698.88 413.523 699.086 413.429 699.238 413.281C699.371 413.151 699.474 412.992 699.536 412.816C699.607 412.617 699.607 412.389 699.607 411.935V403.614M677.603 402.391L689.39 396.497C689.55 396.417 689.631 396.377 689.715 396.361C689.789 396.347 689.866 396.347 689.94 396.361C690.024 396.377 690.104 396.417 690.265 396.497L702.052 402.391L690.265 408.285C690.104 408.365 690.024 408.405 689.94 408.421C689.866 408.435 689.789 408.435 689.715 408.421C689.631 408.405 689.55 408.365 689.39 408.285L677.603 402.391Z" stroke="white" stroke-width="2" stroke-linecap="round" stroke-linejoin="round"/>
<path d="M687.818 352C687.818 350.527 689.012 349.333 690.484 349.333C691.957 349.333 693.151 350.527 693.151 352C693.151 353.473 691.957 354.667 690.484 354.667C689.012 354.667 687.818 353.473 687.818 352ZM689.984 279C689.984 278.724 690.208 278.5 690.484 278.5C690.761 278.5 690.984 278.724 690.984 279L689.984 279ZM689.984 352L689.984 279L690.984 279L690.984 352L689.984 352Z" fill="white"/>
<path d="M622.203 259H604.521V244.006H606.411V257.32H612.396V244.006H614.286V257.32H620.292V244.006H622.203V259ZM633.756 247.744H635.772L630.963 253.162L636.171 259H634.029L628.947 253.288V259H627.099V247.744H628.947V253.204L633.756 247.744ZM641.112 247.744V259H639.264V247.744H641.112ZM640.209 243.523C640.489 243.523 640.734 243.621 640.944 243.817C641.168 243.999 641.28 244.293 641.28 244.699C641.28 245.091 641.168 245.385 640.944 245.581C640.734 245.777 640.489 245.875 640.209 245.875C639.901 245.875 639.642 245.777 639.432 245.581C639.222 245.385 639.117 245.091 639.117 244.699C639.117 244.293 639.222 243.999 639.432 243.817C639.642 243.621 639.901 243.523 640.209 243.523ZM654.296 259H652.427V249.277H649.109C648.969 251.055 648.794 252.574 648.584 253.834C648.374 255.08 648.108 256.095 647.786 256.879C647.464 257.663 647.079 258.237 646.631 258.601C646.183 258.965 645.658 259.147 645.056 259.147C644.874 259.147 644.692 259.133 644.51 259.105C644.342 259.091 644.202 259.056 644.09 259V257.614C644.174 257.642 644.265 257.663 644.363 257.677C644.461 257.691 644.559 257.698 644.657 257.698C644.965 257.698 645.245 257.572 645.497 257.32C645.749 257.068 645.973 256.683 646.169 256.165C646.379 255.647 646.568 254.996 646.736 254.212C646.904 253.414 647.051 252.476 647.177 251.398C647.303 250.32 647.415 249.102 647.513 247.744H654.296V259ZM664.106 252.364C665.086 252.364 665.898 252.483 666.542 252.721C667.186 252.959 667.669 253.316 667.991 253.792C668.327 254.254 668.495 254.842 668.495 255.556C668.495 256.256 668.334 256.865 668.012 257.383C667.704 257.901 667.221 258.3 666.563 258.58C665.905 258.86 665.058 259 664.022 259H658.919V247.744H660.767V252.364H664.106ZM666.647 255.661C666.647 254.975 666.402 254.513 665.912 254.275C665.436 254.023 664.764 253.897 663.896 253.897H660.767V257.509H663.938C664.722 257.509 665.366 257.369 665.87 257.089C666.388 256.809 666.647 256.333 666.647 255.661ZM674.285 247.744V252.427H680.396V247.744H682.244V259H680.396V253.981H674.285V259H672.437V247.744H674.285ZM688.601 254.611C688.601 254.737 688.594 254.919 688.58 255.157C688.58 255.381 688.573 255.626 688.559 255.892C688.545 256.144 688.531 256.389 688.517 256.627C688.503 256.851 688.489 257.033 688.475 257.173L694.502 247.744H696.77V259H695.048V252.364C695.048 252.14 695.048 251.846 695.048 251.482C695.062 251.118 695.076 250.761 695.09 250.411C695.104 250.047 695.118 249.774 695.132 249.592L689.147 259H686.858V247.744H688.601V254.611ZM710.517 243.082C710.461 243.782 710.286 244.37 709.992 244.846C709.712 245.322 709.292 245.679 708.732 245.917C708.172 246.155 707.444 246.274 706.548 246.274C705.638 246.274 704.903 246.155 704.343 245.917C703.797 245.679 703.398 245.329 703.146 244.867C702.894 244.391 702.74 243.796 702.684 243.082H704.406C704.476 243.838 704.672 244.349 704.994 244.615C705.33 244.867 705.862 244.993 706.59 244.993C707.234 244.993 707.738 244.86 708.102 244.594C708.48 244.314 708.704 243.81 708.774 243.082H710.517ZM703.146 254.611C703.146 254.737 703.139 254.919 703.125 255.157C703.125 255.381 703.118 255.626 703.104 255.892C703.09 256.144 703.076 256.389 703.062 256.627C703.048 256.851 703.034 257.033 703.02 257.173L709.047 247.744H711.315V259H709.593V252.364C709.593 252.14 709.593 251.846 709.593 251.482C709.607 251.118 709.621 250.761 709.635 250.411C709.649 250.047 709.663 249.774 709.677 249.592L703.692 259H701.403V247.744H703.146V254.611ZM723.931 247.744V259H722.083V247.744H723.931ZM723.028 243.523C723.308 243.523 723.553 243.621 723.763 243.817C723.987 243.999 724.099 244.293 724.099 244.699C724.099 245.091 723.987 245.385 723.763 245.581C723.553 245.777 723.308 245.875 723.028 245.875C722.72 245.875 722.461 245.777 722.251 245.581C722.041 245.385 721.936 245.091 721.936 244.699C721.936 244.293 722.041 243.999 722.251 243.817C722.461 243.621 722.72 243.523 723.028 243.523ZM733.062 259.21C732.068 259.21 731.179 259.007 730.395 258.601C729.625 258.195 729.016 257.565 728.568 256.711C728.134 255.857 727.917 254.765 727.917 253.435C727.917 252.049 728.148 250.922 728.61 250.054C729.072 249.186 729.695 248.549 730.479 248.143C731.277 247.737 732.18 247.534 733.188 247.534C733.762 247.534 734.315 247.597 734.847 247.723C735.379 247.835 735.813 247.975 736.149 248.143L735.582 249.676C735.246 249.55 734.854 249.431 734.406 249.319C733.958 249.207 733.538 249.151 733.146 249.151C732.39 249.151 731.767 249.312 731.277 249.634C730.787 249.956 730.423 250.432 730.185 251.062C729.947 251.692 729.828 252.476 729.828 253.414C729.828 254.31 729.947 255.073 730.185 255.703C730.423 256.333 730.78 256.809 731.256 257.131C731.732 257.453 732.327 257.614 733.041 257.614C733.657 257.614 734.196 257.551 734.658 257.425C735.134 257.299 735.568 257.145 735.96 256.963V258.601C735.582 258.797 735.162 258.944 734.7 259.042C734.252 259.154 733.706 259.21 733.062 259.21ZM749.2 247.744V259H747.352V249.319H741.535V259H739.687V247.744H749.2ZM755.584 254.611C755.584 254.737 755.577 254.919 755.563 255.157C755.563 255.381 755.556 255.626 755.542 255.892C755.528 256.144 755.514 256.389 755.5 256.627C755.486 256.851 755.472 257.033 755.458 257.173L761.485 247.744H763.753V259H762.031V252.364C762.031 252.14 762.031 251.846 762.031 251.482C762.045 251.118 762.059 250.761 762.073 250.411C762.087 250.047 762.101 249.774 762.115 249.592L756.13 259H753.841V247.744H755.584V254.611ZM776.155 249.298H772.48V259H770.653V249.298H767.02V247.744H776.155V249.298Z" fill="white"/>
<path style="mix-blend-mode:multiply" opacity="0.76" d="M1157.24 312.674C1174.5 312.674 1188.48 309.139 1188.48 304.779C1188.48 300.418 1174.5 296.883 1157.24 296.883C1139.99 296.883 1126 300.418 1126 304.779C1126 309.139 1139.99 312.674 1157.24 312.674Z" fill="url(#paint10_radial_135_796)"/>
<g filter="url(#filter4_d_135_796)">
<path d="M1190.41 250.476C1190.41 268.416 1157.7 304.779 1157.7 304.779C1157.7 304.779 1125 268.416 1125 250.476C1125 232.536 1139.64 218 1157.7 218C1175.77 218 1190.41 232.536 1190.41 250.476Z" fill="url(#paint11_linear_135_796)"/>
</g>
<path d="M1181.32 255.337C1184.35 242.494 1176.33 229.643 1163.39 226.633C1150.46 223.623 1137.52 231.594 1134.49 244.437C1131.46 257.28 1139.48 270.131 1152.42 273.141C1165.35 276.151 1178.29 268.179 1181.32 255.337Z" fill="url(#paint12_linear_135_796)"/>
<path d="M1154 249.006L1156.45 251.451L1161.95 245.95M1167.45 249.617C1167.45 255.618 1160.9 259.982 1158.52 261.371C1158.25 261.529 1158.12 261.608 1157.93 261.649C1157.78 261.681 1157.56 261.681 1157.41 261.649C1157.22 261.608 1157.09 261.529 1156.82 261.371C1154.44 259.982 1147.89 255.618 1147.89 249.617V243.771C1147.89 242.793 1147.89 242.305 1148.05 241.884C1148.19 241.513 1148.42 241.182 1148.72 240.92C1149.06 240.623 1149.51 240.451 1150.43 240.108L1156.98 237.65C1157.24 237.554 1157.36 237.507 1157.5 237.488C1157.61 237.471 1157.73 237.471 1157.84 237.488C1157.98 237.507 1158.1 237.554 1158.36 237.65L1164.91 240.108C1165.83 240.451 1166.28 240.623 1166.62 240.92C1166.92 241.182 1167.15 241.513 1167.29 241.884C1167.45 242.305 1167.45 242.793 1167.45 243.771V249.617Z" stroke="white" stroke-width="2" stroke-linecap="round" stroke-linejoin="round"/>
<path d="M1155.33 193C1155.33 191.527 1156.53 190.333 1158 190.333C1159.47 190.333 1160.67 191.527 1160.67 193C1160.67 194.473 1159.47 195.667 1158 195.667C1156.53 195.667 1155.33 194.473 1155.33 193ZM1157.5 120C1157.5 119.724 1157.72 119.5 1158 119.5C1158.28 119.5 1158.5 119.724 1158.5 120L1157.5 120ZM1157.5 193L1157.5 120L1158.5 120L1158.5 193L1157.5 193Z" fill="white"/>
<path d="M1097.07 40.006C1098.4 40.006 1099.51 40.132 1100.4 40.384C1101.31 40.622 1101.99 41.021 1102.44 41.581C1102.9 42.127 1103.13 42.869 1103.13 43.807C1103.13 44.367 1103.04 44.878 1102.86 45.34C1102.68 45.802 1102.41 46.18 1102.06 46.474C1101.73 46.768 1101.31 46.957 1100.82 47.041V47.146C1101.33 47.244 1101.78 47.419 1102.19 47.671C1102.6 47.923 1102.92 48.287 1103.16 48.763C1103.39 49.239 1103.51 49.869 1103.51 50.653C1103.51 51.563 1103.29 52.347 1102.84 53.005C1102.41 53.649 1101.78 54.146 1100.95 54.496C1100.12 54.832 1099.14 55 1098.01 55H1092.4V40.006H1097.07ZM1097.42 45.949C1098.35 45.949 1098.98 45.802 1099.33 45.508C1099.7 45.214 1099.88 44.787 1099.88 44.227C1099.88 43.653 1099.67 43.24 1099.25 42.988C1098.83 42.736 1098.16 42.61 1097.25 42.61H1095.57V45.949H1097.42ZM1095.57 48.469V52.375H1097.65C1098.61 52.375 1099.27 52.193 1099.65 51.829C1100.03 51.451 1100.22 50.954 1100.22 50.338C1100.22 49.96 1100.13 49.631 1099.96 49.351C1099.81 49.071 1099.54 48.854 1099.14 48.7C1098.75 48.546 1098.22 48.469 1097.55 48.469H1095.57ZM1121.17 47.482C1121.17 48.644 1121.02 49.701 1120.73 50.653C1120.45 51.591 1120.02 52.403 1119.43 53.089C1118.85 53.775 1118.11 54.3 1117.2 54.664C1116.31 55.028 1115.25 55.21 1114.03 55.21C1112.81 55.21 1111.75 55.028 1110.84 54.664C1109.94 54.286 1109.2 53.761 1108.61 53.089C1108.04 52.403 1107.6 51.584 1107.31 50.632C1107.03 49.68 1106.89 48.623 1106.89 47.461C1106.89 45.907 1107.14 44.556 1107.65 43.408C1108.16 42.26 1108.95 41.371 1110 40.741C1111.06 40.097 1112.41 39.775 1114.05 39.775C1115.68 39.775 1117.01 40.097 1118.06 40.741C1119.11 41.371 1119.89 42.267 1120.39 43.429C1120.91 44.577 1121.17 45.928 1121.17 47.482ZM1110.23 47.482C1110.23 48.532 1110.36 49.435 1110.63 50.191C1110.89 50.947 1111.31 51.528 1111.87 51.934C1112.43 52.34 1113.15 52.543 1114.03 52.543C1114.94 52.543 1115.67 52.34 1116.21 51.934C1116.77 51.528 1117.18 50.947 1117.43 50.191C1117.7 49.435 1117.83 48.532 1117.83 47.482C1117.83 45.9 1117.54 44.661 1116.95 43.765C1116.36 42.869 1115.4 42.421 1114.05 42.421C1113.16 42.421 1112.43 42.624 1111.87 43.03C1111.31 43.436 1110.89 44.017 1110.63 44.773C1110.36 45.529 1110.23 46.432 1110.23 47.482ZM1136.66 40.006V52.354H1138.65V59.368H1135.58V55H1126.2V59.368H1123.13V52.354H1124.29C1124.68 51.57 1125.06 50.744 1125.42 49.876C1125.78 49.008 1126.12 48.077 1126.43 47.083C1126.75 46.089 1127.04 45.011 1127.29 43.849C1127.54 42.673 1127.75 41.392 1127.92 40.006H1136.66ZM1130.44 42.652C1130.34 43.38 1130.2 44.157 1130.02 44.983C1129.84 45.795 1129.62 46.628 1129.37 47.482C1129.13 48.336 1128.86 49.176 1128.57 50.002C1128.28 50.828 1127.96 51.612 1127.63 52.354H1133.48V42.652H1130.44ZM1147.61 55H1140.79V53.194L1142.61 52.354V42.652L1140.79 41.812V40.006H1147.61V41.812L1145.78 42.652V52.354L1147.61 53.194V55ZM1163.29 35.071C1163.22 35.799 1163.02 36.443 1162.68 37.003C1162.35 37.549 1161.82 37.976 1161.11 38.284C1160.39 38.592 1159.43 38.746 1158.23 38.746C1157 38.746 1156.03 38.599 1155.33 38.305C1154.65 37.997 1154.16 37.57 1153.86 37.024C1153.57 36.478 1153.39 35.827 1153.34 35.071H1156.13C1156.2 35.841 1156.4 36.352 1156.72 36.604C1157.04 36.856 1157.56 36.982 1158.29 36.982C1158.89 36.982 1159.38 36.849 1159.76 36.583C1160.15 36.303 1160.39 35.799 1160.46 35.071H1163.29ZM1151.22 40.006H1154.07V47.251C1154.07 47.601 1154.06 47.993 1154.05 48.427C1154.04 48.861 1154.02 49.288 1154.01 49.708C1153.99 50.114 1153.98 50.471 1153.97 50.779C1153.95 51.073 1153.94 51.276 1153.92 51.388H1153.99L1160.92 40.006H1164.72V55H1161.88V47.797C1161.88 47.419 1161.89 47.006 1161.9 46.558C1161.92 46.096 1161.93 45.655 1161.95 45.235C1161.97 44.815 1162 44.451 1162.01 44.143C1162.04 43.821 1162.06 43.611 1162.07 43.513H1161.99L1155.04 55H1151.22V40.006ZM1175.92 42.442C1175.31 42.442 1174.78 42.561 1174.3 42.799C1173.84 43.037 1173.45 43.38 1173.12 43.828C1172.8 44.262 1172.56 44.794 1172.39 45.424C1172.23 46.054 1172.16 46.761 1172.16 47.545C1172.16 48.609 1172.28 49.519 1172.54 50.275C1172.8 51.017 1173.21 51.584 1173.77 51.976C1174.33 52.368 1175.05 52.564 1175.92 52.564C1176.53 52.564 1177.14 52.494 1177.74 52.354C1178.36 52.214 1179.02 52.018 1179.74 51.766V54.433C1179.08 54.699 1178.43 54.895 1177.79 55.021C1177.14 55.147 1176.42 55.21 1175.62 55.21C1174.08 55.21 1172.81 54.895 1171.8 54.265C1170.81 53.621 1170.07 52.725 1169.6 51.577C1169.12 50.415 1168.88 49.064 1168.88 47.524C1168.88 46.39 1169.04 45.354 1169.34 44.416C1169.65 43.464 1170.1 42.645 1170.69 41.959C1171.29 41.273 1172.02 40.741 1172.89 40.363C1173.77 39.985 1174.78 39.796 1175.92 39.796C1176.66 39.796 1177.4 39.894 1178.14 40.09C1178.9 40.272 1179.62 40.524 1180.31 40.846L1179.28 43.429C1178.72 43.163 1178.15 42.932 1177.58 42.736C1177.02 42.54 1176.46 42.442 1175.92 42.442ZM1183.97 55V40.006H1187.15V45.76H1188.41C1189.82 45.76 1190.97 45.956 1191.87 46.348C1192.78 46.74 1193.45 47.279 1193.89 47.965C1194.32 48.651 1194.54 49.435 1194.54 50.317C1194.54 51.297 1194.32 52.137 1193.89 52.837C1193.45 53.537 1192.78 54.076 1191.87 54.454C1190.96 54.818 1189.78 55 1188.34 55H1183.97ZM1188.22 52.396C1189.18 52.396 1189.94 52.242 1190.48 51.934C1191.04 51.626 1191.32 51.087 1191.32 50.317C1191.32 49.785 1191.18 49.379 1190.9 49.099C1190.64 48.819 1190.25 48.63 1189.75 48.532C1189.26 48.42 1188.66 48.364 1187.96 48.364H1187.15V52.396H1188.22ZM1210.64 55H1207.03L1201.59 47.398V55H1198.42V40.006H1201.59V47.272L1206.96 40.006H1210.34L1204.88 47.209L1210.64 55ZM1222.21 55H1213.58V40.006H1222.21V42.61H1216.75V45.907H1221.83V48.511H1216.75V52.375H1222.21V55ZM1038.82 89V74.006H1050.69V89H1047.52V76.652H1041.99V89H1038.82ZM1069.13 81.482C1069.13 82.644 1068.98 83.701 1068.69 84.653C1068.41 85.591 1067.97 86.403 1067.38 87.089C1066.81 87.775 1066.07 88.3 1065.16 88.664C1064.26 89.028 1063.21 89.21 1061.99 89.21C1060.77 89.21 1059.71 89.028 1058.8 88.664C1057.9 88.286 1057.16 87.761 1056.57 87.089C1056 86.403 1055.56 85.584 1055.27 84.632C1054.99 83.68 1054.85 82.623 1054.85 81.461C1054.85 79.907 1055.1 78.556 1055.6 77.408C1056.12 76.26 1056.91 75.371 1057.96 74.741C1059.02 74.097 1060.37 73.775 1062.01 73.775C1063.63 73.775 1064.97 74.097 1066.02 74.741C1067.07 75.371 1067.85 76.267 1068.35 77.429C1068.87 78.577 1069.13 79.928 1069.13 81.482ZM1058.19 81.482C1058.19 82.532 1058.32 83.435 1058.59 84.191C1058.85 84.947 1059.26 85.528 1059.82 85.934C1060.38 86.34 1061.11 86.543 1061.99 86.543C1062.9 86.543 1063.63 86.34 1064.17 85.934C1064.73 85.528 1065.14 84.947 1065.39 84.191C1065.66 83.435 1065.79 82.532 1065.79 81.482C1065.79 79.9 1065.49 78.661 1064.91 77.765C1064.32 76.869 1063.35 76.421 1062.01 76.421C1061.11 76.421 1060.38 76.624 1059.82 77.03C1059.26 77.436 1058.85 78.017 1058.59 78.773C1058.32 79.529 1058.19 80.432 1058.19 81.482ZM1079.65 76.442C1079.04 76.442 1078.51 76.561 1078.03 76.799C1077.57 77.037 1077.18 77.38 1076.85 77.828C1076.53 78.262 1076.29 78.794 1076.12 79.424C1075.96 80.054 1075.89 80.761 1075.89 81.545C1075.89 82.609 1076.01 83.519 1076.27 84.275C1076.53 85.017 1076.94 85.584 1077.5 85.976C1078.06 86.368 1078.78 86.564 1079.65 86.564C1080.26 86.564 1080.87 86.494 1081.47 86.354C1082.09 86.214 1082.75 86.018 1083.47 85.766V88.433C1082.81 88.699 1082.16 88.895 1081.52 89.021C1080.87 89.147 1080.15 89.21 1079.35 89.21C1077.81 89.21 1076.54 88.895 1075.53 88.265C1074.54 87.621 1073.8 86.725 1073.33 85.577C1072.85 84.415 1072.61 83.064 1072.61 81.524C1072.61 80.39 1072.77 79.354 1073.07 78.416C1073.38 77.464 1073.83 76.645 1074.42 75.959C1075.02 75.273 1075.75 74.741 1076.62 74.363C1077.5 73.985 1078.51 73.796 1079.65 73.796C1080.39 73.796 1081.13 73.894 1081.87 74.09C1082.63 74.272 1083.35 74.524 1084.04 74.846L1083.01 77.429C1082.45 77.163 1081.88 76.932 1081.31 76.736C1080.75 76.54 1080.19 76.442 1079.65 76.442ZM1092.37 74.006C1093.7 74.006 1094.81 74.132 1095.71 74.384C1096.62 74.622 1097.29 75.021 1097.74 75.581C1098.2 76.127 1098.44 76.869 1098.44 77.807C1098.44 78.367 1098.34 78.878 1098.16 79.34C1097.98 79.802 1097.71 80.18 1097.36 80.474C1097.03 80.768 1096.62 80.957 1096.13 81.041V81.146C1096.63 81.244 1097.08 81.419 1097.49 81.671C1097.9 81.923 1098.22 82.287 1098.46 82.763C1098.69 83.239 1098.81 83.869 1098.81 84.653C1098.81 85.563 1098.59 86.347 1098.14 87.005C1097.71 87.649 1097.08 88.146 1096.25 88.496C1095.43 88.832 1094.45 89 1093.31 89H1087.7V74.006H1092.37ZM1092.72 79.949C1093.65 79.949 1094.28 79.802 1094.63 79.508C1095 79.214 1095.18 78.787 1095.18 78.227C1095.18 77.653 1094.97 77.24 1094.55 76.988C1094.13 76.736 1093.47 76.61 1092.56 76.61H1090.88V79.949H1092.72ZM1090.88 82.469V86.375H1092.95C1093.91 86.375 1094.57 86.193 1094.95 85.829C1095.33 85.451 1095.52 84.954 1095.52 84.338C1095.52 83.96 1095.43 83.631 1095.26 83.351C1095.11 83.071 1094.84 82.854 1094.45 82.7C1094.05 82.546 1093.52 82.469 1092.85 82.469H1090.88ZM1108.47 89H1101.65V87.194L1103.47 86.354V76.652L1101.65 75.812V74.006H1108.47V75.812L1106.64 76.652V86.354L1108.47 87.194V89ZM1123.82 74.006V86.354H1125.81V93.368H1122.74V89H1113.36V93.368H1110.29V86.354H1111.45C1111.84 85.57 1112.22 84.744 1112.58 83.876C1112.94 83.008 1113.28 82.077 1113.59 81.083C1113.91 80.089 1114.2 79.011 1114.45 77.849C1114.7 76.673 1114.91 75.392 1115.08 74.006H1123.82ZM1117.6 76.652C1117.5 77.38 1117.36 78.157 1117.18 78.983C1117 79.795 1116.78 80.628 1116.53 81.482C1116.29 82.336 1116.02 83.176 1115.73 84.002C1115.44 84.828 1115.12 85.612 1114.79 86.354H1120.64V76.652H1117.6ZM1140.67 89H1137.5V83.204C1136.62 83.512 1135.81 83.743 1135.06 83.897C1134.34 84.051 1133.6 84.128 1132.86 84.128C1131.46 84.128 1130.36 83.792 1129.56 83.12C1128.78 82.434 1128.39 81.461 1128.39 80.201V74.006H1131.56V79.298C1131.56 80.026 1131.73 80.572 1132.06 80.936C1132.4 81.3 1132.96 81.482 1133.76 81.482C1134.35 81.482 1134.94 81.419 1135.53 81.293C1136.11 81.167 1136.77 80.978 1137.5 80.726V74.006H1140.67V89ZM1154.12 89H1145.49V74.006H1154.12V76.61H1148.66V79.907H1153.74V82.511H1148.66V86.375H1154.12V89ZM1170.58 89H1167.41V82.532H1161.46V89H1158.29V74.006H1161.46V79.886H1167.41V74.006H1170.58V89ZM1187.69 89H1184.51V82.532H1178.57V89H1175.4V74.006H1178.57V79.886H1184.51V74.006H1187.69V89ZM1197.55 83.246L1194.04 89H1190.51L1194.78 82.406C1194.37 82.238 1193.96 81.993 1193.56 81.671C1193.15 81.335 1192.82 80.894 1192.55 80.348C1192.28 79.788 1192.15 79.102 1192.15 78.29C1192.15 76.904 1192.65 75.847 1193.64 75.119C1194.64 74.377 1196.03 74.006 1197.82 74.006H1202.69V89H1199.52V83.246H1197.55ZM1197.95 76.61C1197.4 76.61 1196.93 76.673 1196.54 76.799C1196.16 76.925 1195.87 77.128 1195.66 77.408C1195.46 77.688 1195.36 78.059 1195.36 78.521C1195.36 79.179 1195.58 79.704 1196.02 80.096C1196.46 80.474 1197.14 80.663 1198.03 80.663H1199.52V76.61H1197.95ZM1219.15 89H1215.98V76.652H1211.9V74.006H1223.22V76.652H1219.15V89ZM1231.25 74.006C1232.58 74.006 1233.69 74.132 1234.58 74.384C1235.49 74.622 1236.17 75.021 1236.62 75.581C1237.08 76.127 1237.31 76.869 1237.31 77.807C1237.31 78.367 1237.22 78.878 1237.04 79.34C1236.86 79.802 1236.59 80.18 1236.24 80.474C1235.91 80.768 1235.49 80.957 1235 81.041V81.146C1235.51 81.244 1235.96 81.419 1236.37 81.671C1236.78 81.923 1237.1 82.287 1237.34 82.763C1237.57 83.239 1237.69 83.869 1237.69 84.653C1237.69 85.563 1237.47 86.347 1237.02 87.005C1236.59 87.649 1235.96 88.146 1235.13 88.496C1234.3 88.832 1233.32 89 1232.19 89H1226.58V74.006H1231.25ZM1231.6 79.949C1232.53 79.949 1233.16 79.802 1233.51 79.508C1233.88 79.214 1234.06 78.787 1234.06 78.227C1234.06 77.653 1233.85 77.24 1233.43 76.988C1233.01 76.736 1232.34 76.61 1231.43 76.61H1229.75V79.949H1231.6ZM1229.75 82.469V86.375H1231.83C1232.79 86.375 1233.45 86.193 1233.83 85.829C1234.21 85.451 1234.4 84.954 1234.4 84.338C1234.4 83.96 1234.31 83.631 1234.14 83.351C1233.99 83.071 1233.72 82.854 1233.32 82.7C1232.93 82.546 1232.4 82.469 1231.73 82.469H1229.75ZM1255.35 81.482C1255.35 82.644 1255.2 83.701 1254.91 84.653C1254.63 85.591 1254.2 86.403 1253.61 87.089C1253.03 87.775 1252.29 88.3 1251.38 88.664C1250.49 89.028 1249.43 89.21 1248.21 89.21C1246.99 89.21 1245.93 89.028 1245.02 88.664C1244.12 88.286 1243.38 87.761 1242.79 87.089C1242.22 86.403 1241.79 85.584 1241.49 84.632C1241.21 83.68 1241.07 82.623 1241.07 81.461C1241.07 79.907 1241.32 78.556 1241.83 77.408C1242.35 76.26 1243.13 75.371 1244.18 74.741C1245.24 74.097 1246.59 73.775 1248.23 73.775C1249.86 73.775 1251.19 74.097 1252.24 74.741C1253.29 75.371 1254.07 76.267 1254.57 77.429C1255.09 78.577 1255.35 79.928 1255.35 81.482ZM1244.41 81.482C1244.41 82.532 1244.54 83.435 1244.81 84.191C1245.08 84.947 1245.49 85.528 1246.05 85.934C1246.61 86.34 1247.33 86.543 1248.21 86.543C1249.12 86.543 1249.85 86.34 1250.4 85.934C1250.96 85.528 1251.36 84.947 1251.61 84.191C1251.88 83.435 1252.01 82.532 1252.01 81.482C1252.01 79.9 1251.72 78.661 1251.13 77.765C1250.54 76.869 1249.58 76.421 1248.23 76.421C1247.34 76.421 1246.61 76.624 1246.05 77.03C1245.49 77.436 1245.08 78.017 1244.81 78.773C1244.54 79.529 1244.41 80.432 1244.41 81.482ZM1266.25 76.442C1265.69 76.442 1265.16 76.526 1264.67 76.694C1264.2 76.848 1263.78 77.086 1263.41 77.408C1263.06 77.716 1262.78 78.101 1262.57 78.563C1262.36 79.025 1262.24 79.55 1262.2 80.138H1268.68V82.742H1262.17C1262.22 83.344 1262.34 83.883 1262.53 84.359C1262.73 84.835 1262.99 85.241 1263.33 85.577C1263.68 85.899 1264.1 86.144 1264.59 86.312C1265.08 86.48 1265.65 86.564 1266.29 86.564C1266.96 86.564 1267.63 86.494 1268.31 86.354C1268.99 86.214 1269.73 86.018 1270.53 85.766V88.433C1269.82 88.699 1269.12 88.895 1268.43 89.021C1267.75 89.147 1266.97 89.21 1266.1 89.21C1264.44 89.21 1263.06 88.895 1261.99 88.265C1260.92 87.621 1260.13 86.725 1259.61 85.577C1259.09 84.415 1258.84 83.064 1258.84 81.524C1258.84 80.39 1259 79.354 1259.32 78.416C1259.65 77.464 1260.14 76.645 1260.79 75.959C1261.43 75.273 1262.22 74.741 1263.16 74.363C1264.1 73.985 1265.18 73.796 1266.4 73.796C1267.29 73.796 1268.12 73.894 1268.87 74.09C1269.63 74.272 1270.37 74.524 1271.1 74.846L1269.97 77.429C1269.35 77.163 1268.75 76.932 1268.18 76.736C1267.62 76.54 1266.98 76.442 1266.25 76.442ZM1274.6 84.506C1274.49 84.506 1274.41 84.492 1274.37 84.464C1274.34 84.436 1274.33 84.345 1274.33 84.191L1273.99 75.14C1273.99 75.042 1274.01 74.972 1274.03 74.93C1274.06 74.888 1274.12 74.867 1274.22 74.867H1276.72C1276.88 74.867 1276.95 74.951 1276.95 75.119L1276.6 84.191C1276.6 84.331 1276.58 84.422 1276.55 84.464C1276.53 84.492 1276.43 84.506 1276.28 84.506H1274.6ZM1276.74 88.223C1276.74 88.587 1276.65 88.867 1276.47 89.063C1276.3 89.259 1275.94 89.357 1275.38 89.357C1274.89 89.357 1274.53 89.259 1274.31 89.063C1274.1 88.867 1273.99 88.587 1273.99 88.223C1273.99 87.859 1274.1 87.586 1274.31 87.404C1274.53 87.208 1274.89 87.11 1275.38 87.11C1275.94 87.11 1276.3 87.208 1276.47 87.404C1276.65 87.586 1276.74 87.859 1276.74 88.223Z" fill="white"/>
<path style="mix-blend-mode:multiply" opacity="0.76" d="M938.704 440.674C955.959 440.674 969.947 437.139 969.947 432.778C969.947 428.418 955.959 424.883 938.704 424.883C921.45 424.883 907.462 428.418 907.462 432.778C907.462 437.139 921.45 440.674 938.704 440.674Z" fill="url(#paint13_radial_135_796)"/>
<g filter="url(#filter5_d_135_796)">
<path d="M971.409 378.476C971.409 396.415 938.704 432.779 938.704 432.779C938.704 432.779 906 396.415 906 378.476C906 360.536 920.638 346 938.704 346C956.77 346 971.409 360.536 971.409 378.476Z" fill="url(#paint14_linear_135_796)"/>
</g>
<path d="M962.324 383.646C965.355 370.803 957.328 357.952 944.394 354.942C931.461 351.932 918.519 359.903 915.488 372.746C912.457 385.589 920.484 398.44 933.418 401.45C946.351 404.46 959.293 396.489 962.324 383.646Z" fill="url(#paint15_linear_135_796)"/>
<path d="M944.782 380.726V377.052C944.782 376.832 944.782 376.723 944.749 376.626C944.719 376.54 944.671 376.462 944.608 376.397C944.536 376.324 944.438 376.275 944.241 376.177L938.67 373.391M928.89 374.614V382.935C928.89 383.389 928.89 383.617 928.961 383.816C929.023 383.992 929.126 384.151 929.259 384.281C929.411 384.429 929.618 384.523 930.031 384.713L937.855 388.299C938.154 388.436 938.304 388.505 938.461 388.532C938.599 388.556 938.74 388.556 938.879 388.532C939.035 388.505 939.185 388.436 939.485 388.299L947.309 384.713C947.722 384.523 947.928 384.429 948.08 384.281C948.214 384.151 948.316 383.992 948.379 383.816C948.45 383.617 948.45 383.389 948.45 382.935V374.614M926.445 373.391L938.232 367.497C938.393 367.417 938.473 367.377 938.557 367.361C938.631 367.347 938.708 367.347 938.782 367.361C938.866 367.377 938.947 367.417 939.107 367.497L950.894 373.391L939.107 379.285C938.947 379.365 938.866 379.405 938.782 379.421C938.708 379.435 938.631 379.435 938.557 379.421C938.473 379.405 938.393 379.365 938.232 379.285L926.445 373.391Z" stroke="white" stroke-width="2" stroke-linecap="round" stroke-linejoin="round"/>
<path d="M936.333 266C936.333 264.527 937.527 263.333 939 263.333C940.473 263.333 941.667 264.527 941.667 266C941.667 267.473 940.473 268.667 939 268.667C937.527 268.667 936.333 267.473 936.333 266ZM938.5 193C938.5 192.724 938.724 192.5 939 192.5C939.276 192.5 939.5 192.724 939.5 193L938.5 193ZM938.5 266L938.5 193L939.5 193L939.5 266L938.5 266Z" fill="white"/>
<path d="M879.258 173H873.84V171.908L875.604 171.509V159.518L873.84 159.098V158.006H879.258V159.098L877.494 159.518V171.509L879.258 171.908V173ZM887.466 173.21C886.472 173.21 885.583 173.007 884.799 172.601C884.029 172.195 883.42 171.565 882.972 170.711C882.538 169.857 882.321 168.765 882.321 167.435C882.321 166.049 882.552 164.922 883.014 164.054C883.476 163.186 884.099 162.549 884.883 162.143C885.681 161.737 886.584 161.534 887.592 161.534C888.166 161.534 888.719 161.597 889.251 161.723C889.783 161.835 890.217 161.975 890.553 162.143L889.986 163.676C889.65 163.55 889.258 163.431 888.81 163.319C888.362 163.207 887.942 163.151 887.55 163.151C886.794 163.151 886.171 163.312 885.681 163.634C885.191 163.956 884.827 164.432 884.589 165.062C884.351 165.692 884.232 166.476 884.232 167.414C884.232 168.31 884.351 169.073 884.589 169.703C884.827 170.333 885.184 170.809 885.66 171.131C886.136 171.453 886.731 171.614 887.445 171.614C888.061 171.614 888.6 171.551 889.062 171.425C889.538 171.299 889.972 171.145 890.364 170.963V172.601C889.986 172.797 889.566 172.944 889.104 173.042C888.656 173.154 888.11 173.21 887.466 173.21ZM903.604 161.744V173H901.756V163.319H895.939V173H894.091V161.744H903.604ZM909.989 168.611C909.989 168.737 909.982 168.919 909.968 169.157C909.968 169.381 909.961 169.626 909.947 169.892C909.933 170.144 909.919 170.389 909.905 170.627C909.891 170.851 909.877 171.033 909.863 171.173L915.89 161.744H918.158V173H916.436V166.364C916.436 166.14 916.436 165.846 916.436 165.482C916.45 165.118 916.464 164.761 916.478 164.411C916.492 164.047 916.506 163.774 916.52 163.592L910.535 173H908.246V161.744H909.989V168.611ZM930.56 163.298H926.885V173H925.058V163.298H921.425V161.744H930.56V163.298ZM938.199 161.744H940.173L942.609 168.149C942.749 168.527 942.875 168.891 942.987 169.241C943.113 169.591 943.225 169.934 943.323 170.27C943.421 170.592 943.498 170.907 943.554 171.215H943.638C943.722 170.865 943.855 170.41 944.037 169.85C944.219 169.276 944.408 168.702 944.604 168.128L946.893 161.744H948.888L944.037 174.554C943.771 175.254 943.456 175.863 943.092 176.381C942.742 176.913 942.308 177.319 941.79 177.599C941.286 177.893 940.67 178.04 939.942 178.04C939.606 178.04 939.312 178.019 939.06 177.977C938.808 177.949 938.591 177.914 938.409 177.872V176.402C938.563 176.43 938.745 176.458 938.955 176.486C939.179 176.514 939.41 176.528 939.648 176.528C940.082 176.528 940.453 176.444 940.761 176.276C941.083 176.122 941.356 175.891 941.58 175.583C941.804 175.289 941.993 174.939 942.147 174.533L942.735 173.042L938.199 161.744ZM964.721 173L959.786 159.854H959.702C959.73 160.134 959.751 160.491 959.765 160.925C959.793 161.359 959.814 161.835 959.828 162.353C959.842 162.857 959.849 163.375 959.849 163.907V173H958.106V158.006H960.899L965.519 170.291H965.603L970.307 158.006H973.079V173H971.21V163.781C971.21 163.291 971.217 162.808 971.231 162.332C971.245 161.842 971.266 161.387 971.294 160.967C971.322 160.533 971.343 160.169 971.357 159.875H971.273L966.275 173H964.721ZM982.492 158.006C983.738 158.006 984.781 158.125 985.621 158.363C986.475 158.601 987.112 158.993 987.532 159.539C987.966 160.085 988.183 160.813 988.183 161.723C988.183 162.311 988.071 162.836 987.847 163.298C987.637 163.746 987.315 164.124 986.881 164.432C986.461 164.726 985.943 164.929 985.327 165.041V165.146C985.957 165.244 986.524 165.426 987.028 165.692C987.546 165.958 987.952 166.336 988.246 166.826C988.54 167.316 988.687 167.953 988.687 168.737C988.687 169.647 988.477 170.424 988.057 171.068C987.637 171.698 987.035 172.181 986.251 172.517C985.481 172.839 984.557 173 983.479 173H978.208V158.006H982.492ZM982.87 164.39C984.158 164.39 985.04 164.187 985.516 163.781C985.992 163.361 986.23 162.745 986.23 161.933C986.23 161.107 985.936 160.519 985.348 160.169C984.774 159.805 983.85 159.623 982.576 159.623H980.098V164.39H982.87ZM980.098 165.965V171.404H983.122C984.452 171.404 985.376 171.145 985.894 170.627C986.412 170.109 986.671 169.43 986.671 168.59C986.671 168.058 986.552 167.596 986.314 167.204C986.09 166.812 985.705 166.511 985.159 166.301C984.627 166.077 983.899 165.965 982.975 165.965H980.098ZM999.342 159.455C998.544 159.455 997.823 159.595 997.179 159.875C996.535 160.141 995.989 160.54 995.541 161.072C995.093 161.59 994.75 162.227 994.512 162.983C994.274 163.725 994.155 164.565 994.155 165.503C994.155 166.735 994.344 167.806 994.722 168.716C995.114 169.626 995.688 170.326 996.444 170.816C997.214 171.306 998.173 171.551 999.321 171.551C999.979 171.551 1000.6 171.495 1001.19 171.383C1001.78 171.271 1002.35 171.131 1002.91 170.963V172.601C1002.35 172.811 1001.77 172.965 1001.17 173.063C1000.58 173.161 999.874 173.21 999.048 173.21C997.522 173.21 996.248 172.895 995.226 172.265C994.204 171.635 993.434 170.739 992.916 169.577C992.412 168.415 992.16 167.05 992.16 165.482C992.16 164.348 992.314 163.312 992.622 162.374C992.944 161.436 993.406 160.624 994.008 159.938C994.624 159.252 995.38 158.727 996.276 158.363C997.172 157.985 998.201 157.796 999.363 157.796C1000.13 157.796 1000.87 157.873 1001.59 158.027C1002.3 158.181 1002.94 158.398 1003.5 158.678L1002.74 160.274C1002.28 160.064 1001.76 159.875 1001.19 159.707C1000.63 159.539 1000.01 159.455 999.342 159.455Z" fill="white"/>
<defs>
<filter id="filter0_d_135_796" x="0.248779" y="93" width="1361.56" height="606" filterUnits="userSpaceOnUse" color-interpolation-filters="sRGB">
<feFlood flood-opacity="0" result="BackgroundImageFix"/>
<feColorMatrix in="SourceAlpha" type="matrix" values="0 0 0 0 0 0 0 0 0 0 0 0 0 0 0 0 0 0 127 0" result="hardAlpha"/>
<feOffset dx="4" dy="4"/>
<feGaussianBlur stdDeviation="10"/>
<feColorMatrix type="matrix" values="0 0 0 0 0.333333 0 0 0 0 0.403922 0 0 0 0 0.419608 0 0 0 0.2 0"/>
<feBlend mode="normal" in2="BackgroundImageFix" result="effect1_dropShadow_135_796"/>
<feBlend mode="normal" in="SourceGraphic" in2="effect1_dropShadow_135_796" result="shape"/>
</filter>
<filter id="filter1_d_135_796" x="104" y="215" width="85.4087" height="106.779" filterUnits="userSpaceOnUse" color-interpolation-filters="sRGB">
<feFlood flood-opacity="0" result="BackgroundImageFix"/>
<feColorMatrix in="SourceAlpha" type="matrix" values="0 0 0 0 0 0 0 0 0 0 0 0 0 0 0 0 0 0 127 0" result="hardAlpha"/>
<feOffset dx="4" dy="4"/>
<feGaussianBlur stdDeviation="5"/>
<feColorMatrix type="matrix" values="0 0 0 0 0.0784314 0 0 0 0 0.0784314 0 0 0 0 0.0784314 0 0 0 0.15 0"/>
<feBlend mode="normal" in2="BackgroundImageFix" result="effect1_dropShadow_135_796"/>
<feBlend mode="normal" in="SourceGraphic" in2="effect1_dropShadow_135_796" result="shape"/>
</filter>
<filter id="filter2_d_135_796" x="406.251" y="173.79" width="82.8884" height="103.435" filterUnits="userSpaceOnUse" color-interpolation-filters="sRGB">
<feFlood flood-opacity="0" result="BackgroundImageFix"/>
<feColorMatrix in="SourceAlpha" type="matrix" values="0 0 0 0 0 0 0 0 0 0 0 0 0 0 0 0 0 0 127 0" result="hardAlpha"/>
<feOffset dx="4" dy="4"/>
<feGaussianBlur stdDeviation="5"/>
<feColorMatrix type="matrix" values="0 0 0 0 0.0784314 0 0 0 0 0.0784314 0 0 0 0 0.0784314 0 0 0 0.15 0"/>
<feBlend mode="normal" in2="BackgroundImageFix" result="effect1_dropShadow_135_796"/>
<feBlend mode="normal" in="SourceGraphic" in2="effect1_dropShadow_135_796" result="shape"/>
</filter>
<filter id="filter3_d_135_796" x="651.484" y="369" width="85.4087" height="106.779" filterUnits="userSpaceOnUse" color-interpolation-filters="sRGB">
<feFlood flood-opacity="0" result="BackgroundImageFix"/>
<feColorMatrix in="SourceAlpha" type="matrix" values="0 0 0 0 0 0 0 0 0 0 0 0 0 0 0 0 0 0 127 0" result="hardAlpha"/>
<feOffset dx="4" dy="4"/>
<feGaussianBlur stdDeviation="5"/>
<feColorMatrix type="matrix" values="0 0 0 0 0.0784314 0 0 0 0 0.0784314 0 0 0 0 0.0784314 0 0 0 0.15 0"/>
<feBlend mode="normal" in2="BackgroundImageFix" result="effect1_dropShadow_135_796"/>
<feBlend mode="normal" in="SourceGraphic" in2="effect1_dropShadow_135_796" result="shape"/>
</filter>
<filter id="filter4_d_135_796" x="1119" y="212" width="85.4087" height="106.779" filterUnits="userSpaceOnUse" color-interpolation-filters="sRGB">
<feFlood flood-opacity="0" result="BackgroundImageFix"/>
<feColorMatrix in="SourceAlpha" type="matrix" values="0 0 0 0 0 0 0 0 0 0 0 0 0 0 0 0 0 0 127 0" result="hardAlpha"/>
<feOffset dx="4" dy="4"/>
<feGaussianBlur stdDeviation="5"/>
<feColorMatrix type="matrix" values="0 0 0 0 0.0784314 0 0 0 0 0.0784314 0 0 0 0 0.0784314 0 0 0 0.15 0"/>
<feBlend mode="normal" in2="BackgroundImageFix" result="effect1_dropShadow_135_796"/>
<feBlend mode="normal" in="SourceGraphic" in2="effect1_dropShadow_135_796" result="shape"/>
</filter>
<filter id="filter5_d_135_796" x="900" y="340" width="85.4087" height="106.779" filterUnits="userSpaceOnUse" color-interpolation-filters="sRGB">
<feFlood flood-opacity="0" result="BackgroundImageFix"/>
<feColorMatrix in="SourceAlpha" type="matrix" values="0 0 0 0 0 0 0 0 0 0 0 0 0 0 0 0 0 0 127 0" result="hardAlpha"/>
<feOffset dx="4" dy="4"/>
<feGaussianBlur stdDeviation="5"/>
<feColorMatrix type="matrix" values="0 0 0 0 0.0784314 0 0 0 0 0.0784314 0 0 0 0 0.0784314 0 0 0 0.15 0"/>
<feBlend mode="normal" in2="BackgroundImageFix" result="effect1_dropShadow_135_796"/>
<feBlend mode="normal" in="SourceGraphic" in2="effect1_dropShadow_135_796" result="shape"/>
</filter>
<linearGradient id="paint0_linear_135_796" x1="16" y1="388.009" x2="1348.48" y2="388.009" gradientUnits="userSpaceOnUse">
<stop stop-color="#494D74"/>
<stop offset="1" stop-color="#090E3A"/>
</linearGradient>
<radialGradient id="paint1_radial_135_796" cx="0" cy="0" r="1" gradientUnits="userSpaceOnUse" gradientTransform="translate(142.704 308.141) scale(31.2421 7.75592)">
<stop/>
<stop offset="0.25" stop-color="#4B4B4B"/>
<stop offset="0.52" stop-color="#979797"/>
<stop offset="0.74" stop-color="#CFCFCF"/>
<stop offset="0.91" stop-color="#F1F1F1"/>
<stop offset="1" stop-color="white"/>
</radialGradient>
<linearGradient id="paint2_linear_135_796" x1="142.704" y1="225.311" x2="142.704" y2="305.782" gradientUnits="userSpaceOnUse">
<stop stop-color="#FF3179"/>
<stop offset="1" stop-color="#750000"/>
</linearGradient>
<linearGradient id="paint3_linear_135_796" x1="-16.6896" y1="275.59" x2="-15.1875" y2="231.542" gradientUnits="userSpaceOnUse">
<stop stop-color="#FF3179"/>
<stop offset="1" stop-color="#750000"/>
</linearGradient>
<radialGradient id="paint4_radial_135_796" cx="0" cy="0" r="1" gradientUnits="userSpaceOnUse" gradientTransform="translate(443.695 264.952) scale(30.0383 7.45707)">
<stop/>
<stop offset="0.25" stop-color="#4B4B4B"/>
<stop offset="0.52" stop-color="#979797"/>
<stop offset="0.74" stop-color="#CFCFCF"/>
<stop offset="0.91" stop-color="#F1F1F1"/>
<stop offset="1" stop-color="white"/>
</radialGradient>
<linearGradient id="paint5_linear_135_796" x1="443.695" y1="183.935" x2="443.695" y2="261.32" gradientUnits="userSpaceOnUse">
<stop stop-color="#EEC32D"/>
<stop offset="0.36" stop-color="#F0AB2C"/>
<stop offset="1" stop-color="#F6782A"/>
</linearGradient>
<linearGradient id="paint6_linear_135_796" x1="443.701" y1="232.287" x2="443.701" y2="189.937" gradientUnits="userSpaceOnUse">
<stop stop-color="#EEC32D"/>
<stop offset="0.36" stop-color="#F0AB2C"/>
<stop offset="1" stop-color="#F6782A"/>
</linearGradient>
<radialGradient id="paint7_radial_135_796" cx="0" cy="0" r="1" gradientUnits="userSpaceOnUse" gradientTransform="translate(690.189 460.61) scale(31.2421 7.75591)">
<stop/>
<stop offset="0.25" stop-color="#4B4B4B"/>
<stop offset="0.52" stop-color="#979797"/>
<stop offset="0.74" stop-color="#CFCFCF"/>
<stop offset="0.91" stop-color="#F1F1F1"/>
<stop offset="1" stop-color="white"/>
</radialGradient>
<linearGradient id="paint8_linear_135_796" x1="690.189" y1="379.311" x2="690.189" y2="459.797" gradientUnits="userSpaceOnUse">
<stop stop-color="#6E843E"/>
<stop offset="1" stop-color="#98BF55"/>
</linearGradient>
<linearGradient id="paint9_linear_135_796" x1="690.158" y1="429.6" x2="690.158" y2="385.553" gradientUnits="userSpaceOnUse">
<stop stop-color="#6E843E"/>
<stop offset="1" stop-color="#98BF55"/>
</linearGradient>
<radialGradient id="paint10_radial_135_796" cx="0" cy="0" r="1" gradientUnits="userSpaceOnUse" gradientTransform="translate(1157.24 304.972) scale(31.2421 7.75592)">
<stop/>
<stop offset="0.25" stop-color="#4B4B4B"/>
<stop offset="0.52" stop-color="#979797"/>
<stop offset="0.74" stop-color="#CFCFCF"/>
<stop offset="0.91" stop-color="#F1F1F1"/>
<stop offset="1" stop-color="white"/>
</radialGradient>
<linearGradient id="paint11_linear_135_796" x1="1157.7" y1="222.311" x2="1157.7" y2="302.782" gradientUnits="userSpaceOnUse">
<stop stop-color="#6745D8"/>
<stop offset="0.34" stop-color="#5433C0"/>
<stop offset="1" stop-color="#270B87"/>
</linearGradient>
<linearGradient id="paint12_linear_135_796" x1="1157.91" y1="272.606" x2="1157.91" y2="228.559" gradientUnits="userSpaceOnUse">
<stop stop-color="#6745D8"/>
<stop offset="0.34" stop-color="#5433C0"/>
<stop offset="1" stop-color="#270B87"/>
</linearGradient>
<radialGradient id="paint13_radial_135_796" cx="0" cy="0" r="1" gradientUnits="userSpaceOnUse" gradientTransform="translate(938.704 431.213) scale(31.2421 7.75592)">
<stop/>
<stop offset="0.25" stop-color="#4B4B4B"/>
<stop offset="0.52" stop-color="#979797"/>
<stop offset="0.74" stop-color="#CFCFCF"/>
<stop offset="0.91" stop-color="#F1F1F1"/>
<stop offset="1" stop-color="white"/>
</radialGradient>
<linearGradient id="paint14_linear_135_796" x1="938.704" y1="350.311" x2="938.704" y2="430.782" gradientUnits="userSpaceOnUse">
<stop stop-color="#267DFF"/>
<stop offset="0.37" stop-color="#196BE7"/>
<stop offset="1" stop-color="#0048B5"/>
</linearGradient>
<linearGradient id="paint15_linear_135_796" x1="938.896" y1="400.908" x2="938.896" y2="356.861" gradientUnits="userSpaceOnUse">
<stop stop-color="#267DFF"/>
<stop offset="0.37" stop-color="#196BE7"/>
<stop offset="1" stop-color="#0048B5"/>
</linearGradient>
</defs>
</svg>
