<svg width="61" height="74" viewBox="0 0 61 74" fill="none" xmlns="http://www.w3.org/2000/svg">
<path style="mix-blend-mode:multiply" opacity="0.76" d="M26.012 64.3344C36.5638 64.3344 45.1177 62.159 45.1177 59.4754C45.1177 56.7919 36.5638 54.6165 26.012 54.6165C15.4602 54.6165 6.90625 56.7919 6.90625 59.4754C6.90625 62.159 15.4602 64.3344 26.012 64.3344Z" fill="url(#paint0_radial_133_408)"/>
<g filter="url(#filter0_d_133_408)">
<path d="M46.0117 26.0583C46.0117 37.0981 26.0117 59.4754 26.0117 59.4754C26.0117 59.4754 6.01172 37.0981 6.01172 26.0583C6.01172 15.0186 14.9637 6.07324 26.0117 6.07324C37.0597 6.07324 46.0117 15.0186 46.0117 26.0583Z" fill="url(#paint1_linear_133_408)"/>
</g>
<path d="M40.3222 29.0524C42.1758 21.1492 37.2668 13.2407 29.3577 11.3884C21.4485 9.5362 13.5341 14.4416 11.6805 22.3449C9.82688 30.2482 14.7359 38.1566 22.6451 40.0088C30.5543 41.8611 38.4686 36.9557 40.3222 29.0524Z" fill="url(#paint2_linear_133_408)"/>
<path d="M29.7517 27.5592V25.2982C29.7517 25.1631 29.7517 25.0956 29.7312 25.036C29.713 24.9833 29.6833 24.9353 29.6443 24.8955C29.6002 24.8504 29.5398 24.8202 29.4191 24.7599L25.9903 23.0455M19.9719 23.7978V28.9184C19.9719 29.1981 19.9719 29.338 20.0155 29.4605C20.0541 29.5688 20.117 29.6668 20.1994 29.747C20.2925 29.8377 20.4197 29.896 20.674 30.0126L25.4887 32.2193C25.6732 32.3039 25.7655 32.3461 25.8616 32.3628C25.9467 32.3776 26.0338 32.3776 26.1189 32.3628C26.215 32.3461 26.3073 32.3039 26.4918 32.2193L31.3065 30.0126C31.5608 29.896 31.688 29.8377 31.7812 29.747C31.8635 29.6668 31.9264 29.5688 31.965 29.4605C32.0086 29.338 32.0086 29.1981 32.0086 28.9184V23.7978M18.4673 23.0455L25.7211 19.4185C25.8198 19.3692 25.8691 19.3445 25.9209 19.3348C25.9667 19.3262 26.0138 19.3262 26.0596 19.3348C26.1114 19.3445 26.1607 19.3692 26.2594 19.4185L33.5132 23.0455L26.2594 26.6724C26.1607 26.7217 26.1114 26.7464 26.0596 26.7561C26.0138 26.7647 25.9667 26.7647 25.9209 26.7561C25.8691 26.7464 25.8198 26.7217 25.7211 26.6724L18.4673 23.0455Z" stroke="white" stroke-width="2" stroke-linecap="round" stroke-linejoin="round"/>
<defs>
<filter id="filter0_d_133_408" x="0.0117188" y="0.0732422" width="60" height="73.4021" filterUnits="userSpaceOnUse" color-interpolation-filters="sRGB">
<feFlood flood-opacity="0" result="BackgroundImageFix"/>
<feColorMatrix in="SourceAlpha" type="matrix" values="0 0 0 0 0 0 0 0 0 0 0 0 0 0 0 0 0 0 127 0" result="hardAlpha"/>
<feOffset dx="4" dy="4"/>
<feGaussianBlur stdDeviation="5"/>
<feColorMatrix type="matrix" values="0 0 0 0 0.0784314 0 0 0 0 0.0784314 0 0 0 0 0.0784314 0 0 0 0.15 0"/>
<feBlend mode="normal" in2="BackgroundImageFix" result="effect1_dropShadow_133_408"/>
<feBlend mode="normal" in="SourceGraphic" in2="effect1_dropShadow_133_408" result="shape"/>
</filter>
<radialGradient id="paint0_radial_133_408" cx="0" cy="0" r="1" gradientUnits="userSpaceOnUse" gradientTransform="translate(26.012 58.512) scale(19.1057 4.77287)">
<stop/>
<stop offset="0.25" stop-color="#4B4B4B"/>
<stop offset="0.52" stop-color="#979797"/>
<stop offset="0.74" stop-color="#CFCFCF"/>
<stop offset="0.91" stop-color="#F1F1F1"/>
<stop offset="1" stop-color="white"/>
</radialGradient>
<linearGradient id="paint1_linear_133_408" x1="26.0117" y1="8.72613" x2="26.0117" y2="58.2467" gradientUnits="userSpaceOnUse">
<stop stop-color="#267DFF"/>
<stop offset="0.37" stop-color="#196BE7"/>
<stop offset="1" stop-color="#0048B5"/>
</linearGradient>
<linearGradient id="paint2_linear_133_408" x1="25.9954" y1="39.6756" x2="25.9954" y2="12.5696" gradientUnits="userSpaceOnUse">
<stop stop-color="#267DFF"/>
<stop offset="0.37" stop-color="#196BE7"/>
<stop offset="1" stop-color="#0048B5"/>
</linearGradient>
</defs>
</svg>
