<svg width="60" height="73" viewBox="0 0 60 73" fill="none" xmlns="http://www.w3.org/2000/svg">
<path style="mix-blend-mode:multiply" opacity="0.76" d="M26.0053 62.8122C36.1505 62.8122 44.3748 60.7206 44.3748 58.1405C44.3748 55.5604 36.1505 53.4688 26.0053 53.4688C15.8601 53.4688 7.63574 55.5604 7.63574 58.1405C7.63574 60.7206 15.8601 62.8122 26.0053 62.8122Z" fill="url(#paint0_radial_133_411)"/>
<g filter="url(#filter0_d_133_411)">
<path d="M45.2351 26.0109C45.2351 36.6253 26.0057 58.1404 26.0057 58.1404C26.0057 58.1404 6.77637 36.6253 6.77637 26.0109C6.77637 15.3966 15.3835 6.7959 26.0057 6.7959C36.628 6.7959 45.2351 15.3966 45.2351 26.0109Z" fill="url(#paint1_linear_133_411)"/>
</g>
<path d="M36.0117 35.672C41.5346 30.1533 41.5346 21.2056 36.0117 15.6869C30.4889 10.1682 21.5346 10.1682 16.0117 15.6869C10.4889 21.2056 10.4889 30.1533 16.0117 35.672C21.5346 41.1907 30.4889 41.1907 36.0117 35.672Z" fill="url(#paint2_linear_133_411)"/>
<path d="M33.086 23.7365C33.2756 23.7365 33.4352 23.577 33.4352 23.3875C33.4352 23.1981 33.2756 23.0386 33.086 23.0386C32.8964 23.0386 32.7368 23.1981 32.7368 23.3875C32.7368 23.577 32.8964 23.7365 33.086 23.7365Z" fill="white"/>
<path d="M23.7862 25.7704C23.9791 25.7704 24.1354 25.6142 24.1354 25.4215C24.1354 25.2288 23.9791 25.0725 23.7862 25.0725C23.5934 25.0725 23.437 25.2288 23.437 25.4215C23.437 25.6142 23.5934 25.7704 23.7862 25.7704Z" fill="white"/>
<path d="M18.4385 29.4494V32.8593H17.5605C17.3709 32.8593 17.2113 33.0188 17.2113 33.2082C17.2113 33.3977 17.3709 33.5572 17.5605 33.5572H27.239H31.4396H34.3332C34.5228 33.5572 34.6824 33.3977 34.6824 33.2082C34.6824 33.0188 34.5228 32.8593 34.3332 32.8593H31.6891L30.6813 29.8582H33.964C34.5427 29.8582 35.0117 29.3896 35.0117 28.8113V20.4362C35.0117 19.8579 34.5427 19.3893 33.964 19.3893H31.2301C31.0605 18.4321 30.2224 17.6943 29.2146 17.6943C28.2068 17.6943 27.3687 18.4321 27.1991 19.3893H24.4652C23.8864 19.3893 23.4175 19.8579 23.4175 20.4362V22.201H21.4618C21.6514 21.9318 21.7711 21.5928 21.7711 21.2338C21.7711 20.3165 21.0228 19.5688 20.1048 19.5688C19.1869 19.5688 18.4385 20.3165 18.4385 21.2338C18.4385 21.7124 18.6381 22.1312 18.9574 22.4402C17.8199 22.9088 17.0117 24.0056 17.0117 25.2818V27.894C17.0117 28.6917 17.6303 29.3497 18.4186 29.4295L18.4385 29.4494ZM30.9607 32.8593H27.7379L28.7456 29.8582H29.9629L30.9707 32.8593H30.9607ZM29.2346 18.4022C29.8532 18.4022 30.372 18.821 30.5317 19.3893H27.9374C28.0971 18.821 28.6159 18.4022 29.2346 18.4022ZM24.1459 20.4362C24.1459 20.2468 24.2955 20.0872 24.4851 20.0872H33.984C34.1736 20.0872 34.3332 20.2368 34.3332 20.4362V28.8113C34.3332 29.0007 34.1836 29.1503 33.984 29.1503H24.4851C24.2955 29.1503 24.1459 29.0007 24.1459 28.8113V26.7574C24.1459 26.568 23.9862 26.4085 23.7966 26.4085C23.607 26.4085 23.4474 26.568 23.4474 26.7574V28.8113C23.4474 29.3896 23.9164 29.8582 24.4951 29.8582H28.0173L27.0095 32.8593H22.0306V24.3845H25.6126C26.6204 24.3845 27.4386 23.5669 27.4386 22.5599C27.4386 22.3704 27.2789 22.2109 27.0893 22.2109H24.1558V20.4462L24.1459 20.4362ZM20.1248 20.2767C20.6536 20.2767 21.0926 20.7054 21.0926 21.2438C21.0926 21.7822 20.6636 22.2109 20.1248 22.2109C19.586 22.2109 19.1569 21.7822 19.1569 21.2438C19.1569 20.7054 19.586 20.2767 20.1248 20.2767ZM17.7401 25.2918C17.7401 23.9757 18.8476 22.9088 20.2146 22.9088H26.6702C26.5206 23.3575 26.1015 23.6766 25.6026 23.6766H21.6714C21.4818 23.6766 21.3221 23.8361 21.3221 24.0255V32.8493H20.5938V28.9011C20.5938 28.7116 20.4341 28.5521 20.2445 28.5521C20.0549 28.5521 19.8953 28.7116 19.8953 28.9011V32.8493H19.1669V25.3715C19.1669 25.1821 19.0073 25.0226 18.8177 25.0226C18.6281 25.0226 18.4685 25.1821 18.4685 25.3715V28.7216C18.0694 28.6418 17.7601 28.3028 17.7601 27.894V25.2818L17.7401 25.2918Z" fill="white"/>
<path d="M26.7203 26.558C26.6505 26.4882 26.5607 26.4583 26.4709 26.4583C26.3811 26.4583 26.2913 26.4982 26.2214 26.558L25.2137 27.565C25.074 27.7046 25.074 27.9239 25.2137 28.0635C25.2835 28.1333 25.3733 28.1632 25.4631 28.1632C25.5529 28.1632 25.6427 28.1333 25.7125 28.0635L26.4709 27.3058L27.0096 27.8442C27.1493 27.9838 27.3689 27.9838 27.5085 27.8442L29.4442 25.8999L29.993 26.4483C30.1327 26.5879 30.3522 26.5879 30.4919 26.4483L32.248 24.6935C32.3877 24.554 32.3877 24.3346 32.248 24.195C32.1083 24.0554 31.8888 24.0554 31.7491 24.195L30.2425 25.7005L29.6937 25.1522C29.554 25.0126 29.3345 25.0126 29.1948 25.1522L27.2491 27.0964L26.7103 26.558H26.7203Z" fill="white"/>
<defs>
<filter id="filter0_d_133_411" x="0.776367" y="0.795898" width="58.4585" height="71.3445" filterUnits="userSpaceOnUse" color-interpolation-filters="sRGB">
<feFlood flood-opacity="0" result="BackgroundImageFix"/>
<feColorMatrix in="SourceAlpha" type="matrix" values="0 0 0 0 0 0 0 0 0 0 0 0 0 0 0 0 0 0 127 0" result="hardAlpha"/>
<feOffset dx="4" dy="4"/>
<feGaussianBlur stdDeviation="5"/>
<feColorMatrix type="matrix" values="0 0 0 0 0.0784314 0 0 0 0 0.0784314 0 0 0 0 0.0784314 0 0 0 0.15 0"/>
<feBlend mode="normal" in2="BackgroundImageFix" result="effect1_dropShadow_133_411"/>
<feBlend mode="normal" in="SourceGraphic" in2="effect1_dropShadow_133_411" result="shape"/>
</filter>
<radialGradient id="paint0_radial_133_411" cx="0" cy="0" r="1" gradientUnits="userSpaceOnUse" gradientTransform="translate(26.0053 59.2033) scale(18.3696 4.58896)">
<stop/>
<stop offset="0.25" stop-color="#4B4B4B"/>
<stop offset="0.52" stop-color="#979797"/>
<stop offset="0.74" stop-color="#CFCFCF"/>
<stop offset="0.91" stop-color="#F1F1F1"/>
<stop offset="1" stop-color="white"/>
</radialGradient>
<linearGradient id="paint1_linear_133_411" x1="26.0057" y1="9.34657" x2="26.0057" y2="56.968" gradientUnits="userSpaceOnUse">
<stop stop-color="#EEC32D"/>
<stop offset="0.36" stop-color="#F0AB2C"/>
<stop offset="1" stop-color="#F6782A"/>
</linearGradient>
<linearGradient id="paint2_linear_133_411" x1="26.0097" y1="39.1015" x2="26.0097" y2="13.04" gradientUnits="userSpaceOnUse">
<stop stop-color="#EEC32D"/>
<stop offset="0.36" stop-color="#F0AB2C"/>
<stop offset="1" stop-color="#F6782A"/>
</linearGradient>
</defs>
</svg>
